<?xml version="1.0" encoding="UTF-8" standalone="no"?>
<!-- Created with Inkscape (http://www.inkscape.org/) -->

<svg
   width="250mm"
   height="250mm"
   viewBox="0 0 250 250"
   version="1.1"
   id="svg5"
   sodipodi:docname="logo.svg"
   inkscape:version="1.1 (c68e22c387, 2021-05-23)"
   xmlns:inkscape="http://www.inkscape.org/namespaces/inkscape"
   xmlns:sodipodi="http://sodipodi.sourceforge.net/DTD/sodipodi-0.dtd"
   xmlns="http://www.w3.org/2000/svg"
   xmlns:svg="http://www.w3.org/2000/svg">
  <sodipodi:namedview
     id="namedview7"
     pagecolor="#ffffff"
     bordercolor="#999999"
     borderopacity="1"
     inkscape:pageshadow="0"
     inkscape:pageopacity="0"
     inkscape:pagecheckerboard="0"
     inkscape:document-units="mm"
     showgrid="true"
     inkscape:zoom="0.47433592"
     inkscape:cx="338.3678"
     inkscape:cy="557.6217"
     inkscape:window-width="1920"
     inkscape:window-height="1051"
     inkscape:window-x="-9"
     inkscape:window-y="-9"
     inkscape:window-maximized="1"
     inkscape:current-layer="layer1"
     showborder="true"
     inkscape:snap-grids="false"
     showguides="true"
     inkscape:guide-bbox="true"
     inkscape:snap-center="true"
     fit-margin-top="0"
     fit-margin-left="0"
     fit-margin-right="0"
     fit-margin-bottom="0">
    <inkscape:grid
       type="xygrid"
       id="grid2570"
       originx="165.23106"
       originy="-34.364227" />
    <sodipodi:guide
       position="272.58544,125.00001"
       orientation="0,-1"
       id="guide2572" />
    <sodipodi:guide
       position="125,125.00001"
       orientation="1,0"
       id="guide2574" />
  </sodipodi:namedview>
  <defs
     id="defs2">
    <filter
       style="color-interpolation-filters:sRGB"
       inkscape:label="Clean Edges"
       id="filter1380"
       x="-0.071705386"
       y="-0.090356342"
       width="1.1434108"
       height="1.1807127">
      <feGaussianBlur
         stdDeviation="1.51144"
         result="blur"
         id="feGaussianBlur1374" />
      <feComposite
         in="SourceGraphic"
         in2="blur"
         operator="in"
         result="composite1"
         id="feComposite1376" />
      <feComposite
         in="composite1"
         in2="composite1"
         operator="in"
         result="fbSourceGraphic"
         id="feComposite1378" />
      <feColorMatrix
         result="fbSourceGraphicAlpha"
         in="fbSourceGraphic"
         values="0 0 0 -1 0 0 0 0 -1 0 0 0 0 -1 0 0 0 0 1 0"
         id="feColorMatrix1400" />
      <feGaussianBlur
         id="feGaussianBlur1402"
         stdDeviation="1.51144"
         result="blur"
         in="fbSourceGraphic" />
      <feComposite
         in2="blur"
         id="feComposite1404"
         in="fbSourceGraphic"
         operator="in"
         result="composite1" />
      <feComposite
         in2="composite1"
         id="feComposite1406"
         in="composite1"
         operator="in"
         result="fbSourceGraphic" />
      <feColorMatrix
         result="fbSourceGraphicAlpha"
         in="fbSourceGraphic"
         values="0 0 0 -1 0 0 0 0 -1 0 0 0 0 -1 0 0 0 0 1 0"
         id="feColorMatrix1426" />
      <feGaussianBlur
         id="feGaussianBlur1428"
         stdDeviation="1.51144"
         result="blur"
         in="fbSourceGraphic" />
      <feComposite
         in2="blur"
         id="feComposite1430"
         in="fbSourceGraphic"
         operator="in"
         result="composite1" />
      <feComposite
         in2="composite1"
         id="feComposite1432"
         in="composite1"
         operator="in"
         result="composite2" />
    </filter>
  </defs>
  <g
     inkscape:label="Layer 1"
     inkscape:groupmode="layer"
     id="layer1"
     transform="translate(165.23108,-34.364227)">
    <circle
       style="fill:#0ed40e;fill-opacity:1;stroke-width:0.266868"
       id="path1880"
       cx="-40.231075"
       cy="159.36423"
       r="125" />
    <g
       id="g1218"
       transform="matrix(1.3924509,0,0,1.3924509,60.984505,-12.152201)"
       style="fill:#242424;fill-opacity:1">
      <path
         style="fill:#242424;fill-opacity:1;stroke-width:0.211667"
         d="m -108.03349,171.553 c -5.72772,-0.68066 -11.0418,-4.59896 -13.5177,-9.96719 -1.6142,-3.49989 -1.47637,-0.0663 -1.55354,-38.7012 -0.0499,-24.993342 -0.002,-35.0751 0.17078,-36.290693 0.94918,-6.659549 5.70365,-12.022602 12.53138,-14.135434 1.53702,-0.475628 1.53702,-0.475628 35.93285,-0.539137 24.027242,-0.04436 34.930082,0.0063 36.168104,0.168057 6.886221,0.899758 12.578668,5.991364 14.432203,12.908875 0.46478,1.734589 0.485136,2.179028 0.5671,12.382501 0.07373,9.177601 0.04277,10.639561 -0.233066,11.006671 -0.305874,0.40708 -0.387562,0.34903 -2.127763,-1.51199 -2.859197,-3.05771 -5.647376,-4.92292 -9.224911,-6.1712 -2.070731,-0.722515 -5.230756,-1.312648 -7.028942,-1.312648 -0.907309,0 -1.272041,-0.08521 -1.361387,-0.318038 -0.06712,-0.174919 1.092447,-3.865857 2.576821,-8.202083 1.484376,-4.336225 2.74461,-8.204569 2.800522,-8.596318 0.06656,-0.466372 0.0013,-0.77582 -0.18893,-0.896343 -0.374703,-0.237354 -9.724767,-0.241635 -10.098686,-0.0046 -0.155707,0.09869 -0.250957,0.406799 -0.211667,0.684675 0.07144,0.50523 0.07144,0.50523 4.176234,0.611063 3.339768,0.08611 4.141248,0.165008 4.300362,0.423334 0.137535,0.223291 -0.587242,2.609913 -2.442621,8.043334 -1.451,4.249208 -2.704797,7.88993 -2.786215,8.090493 -0.08445,0.208026 -0.480197,0.421566 -0.921344,0.497145 -6.798524,1.164726 -12.939726,5.645846 -16.123116,11.764726 -2.268656,4.36065 -3.087171,9.6159 -2.236745,14.36097 1.49342,8.33273 7.696727,15.24349 15.779468,17.57904 0.962645,0.27816 1.792396,0.61553 1.84389,0.74972 0.05149,0.1342 -0.287973,0.78873 -0.754369,1.45454 -2.960252,4.2259 -0.384165,9.59876 4.817139,10.04696 1.05951,0.0913 1.415108,0.2039 1.464685,0.4638 0.03601,0.18877 -0.94448,1.93799 -2.178863,3.88714 -2.326117,3.67305 -2.605452,4.44797 -1.603367,4.44797 0.43898,0 1.021006,-0.80031 4.079298,-5.60917 4.409732,-6.93387 4.645833,-7.37857 4.773896,-8.99171 0.127952,-1.61175 -0.179758,-2.74895 -1.123165,-4.15085 -0.410115,-0.60942 -0.717853,-1.24621 -0.683863,-1.41509 0.03749,-0.18628 0.769383,-0.50887 1.860965,-0.82024 3.848066,-1.09766 6.974662,-2.99017 9.982212,-6.04217 1.124592,-1.14122 2.191838,-2.07494 2.37166,-2.07494 0.202116,0 0.374656,0.26265 0.45191,0.68791 0.06873,0.37836 0.08997,5.2123 0.0472,10.74209 -0.07396,9.5621 -0.100491,10.13704 -0.542072,11.7475 -1.733155,6.32086 -6.280188,10.87419 -12.628408,12.6459 -1.693334,0.47258 -1.693334,0.47258 -35.8775,0.50352 -18.801292,0.017 -34.857489,-0.0491 -35.680439,-0.14687 z m 6.45371,-7.62128 c 3.194749,-1.40865 4.646465,-5.35375 3.123746,-8.48893 -1.024194,-2.10876 -2.882186,-3.34506 -5.327326,-3.54481 -1.18408,-0.0967 -1.4936,-0.19499 -1.55027,-0.49214 -0.0389,-0.20421 0.94474,-1.98302 2.18596,-3.95291 1.28391,-2.03766 2.22501,-3.74815 2.18311,-3.96789 -0.0994,-0.52131 -0.86198,-0.60008 -1.26815,-0.13099 -0.75515,0.87213 -7.62355,11.97063 -7.90924,12.78037 -0.63938,1.81219 -0.33394,3.93743 0.80585,5.60716 1.74197,2.55189 4.90822,3.44594 7.75632,2.19014 z m -3.68744,-1.02048 c -3.16324,-0.80934 -4.62946,-4.12312 -3.11289,-7.03537 1.7971,-3.45093 6.7197,-3.37366 8.573128,0.13458 0.571113,1.08102 0.608429,3.06237 0.07817,4.15027 -0.478168,0.98102 -1.553358,2.0831 -2.363408,2.42253 -0.87099,0.36496 -2.40936,0.52388 -3.175,0.32799 z m 33.7185,1.41771 c 0.190532,-0.19053 0.254,-2.80426 0.254,-10.46019 0,-5.6134 -0.05782,-10.35685 -0.12848,-10.541 -0.194813,-0.50768 -0.788602,-0.40194 -1.388666,0.24727 -0.295908,0.32015 -1.556798,1.90555 -2.801976,3.52313 -2.359076,3.0646 -2.682998,3.83229 -1.617019,3.83229 0.406129,0 0.84553,-0.42562 2.010833,-1.94776 1.474481,-1.92599 1.87607,-2.29387 2.251075,-2.0621 0.110482,0.0683 0.192566,3.74982 0.192566,8.63668 0,8.57563 0.03694,9.02568 0.740834,9.02568 0.128058,0 0.347133,-0.1143 0.486833,-0.254 z m -29.88945,-30.4986 c 3.802678,-1.93023 4.457061,-6.66064 1.3664,-9.8774 -0.47096,-0.49016 -0.85628,-0.92205 -0.85628,-0.95975 0,-0.0377 0.34718,-0.48236 0.77152,-0.98814 1.053029,-1.25515 1.345143,-2.04569 1.345143,-3.64031 0,-3.76501 -3.643013,-6.36477 -7.173423,-5.11917 -1.37032,0.48347 -2.28292,1.31276 -2.98017,2.70807 -0.70724,1.41533 -0.82052,2.49715 -0.30616,2.92402 0.51512,0.42752 1.0119,-0.0211 1.19209,-1.07666 0.45016,-2.63695 3.16239,-4.09119 5.5635,-2.98301 1.55692,0.71857 2.2225,1.81042 2.2225,3.6459 0,1.25614 -0.35433,2.01376 -1.35112,2.88895 -0.77196,0.67779 -0.99319,0.77307 -2.31303,0.99613 -0.7226,0.12212 -0.7998,0.19528 -0.74084,0.70213 0.0583,0.50097 0.2163,0.60502 1.37915,0.90805 1.65234,0.4306 2.6349,1.1734 3.2608,2.46512 1.764427,3.64138 -1.7288,7.65814 -5.54796,6.37944 -1.65046,-0.5526 -2.79841,-1.96366 -3.11733,-3.83182 -0.17181,-1.00643 -0.67629,-1.44234 -1.18276,-1.02201 -0.44796,0.37177 -0.42281,1.2614 0.0725,2.56496 0.72041,1.89596 1.84489,3.00017 3.80067,3.73217 1.16347,0.43545 3.29727,0.24196 4.5948,-0.41667 z m 30.899494,0.3412 c 1.477422,-0.50242 3.292968,-2.35279 3.70177,-3.77277 0.671921,-2.33393 0.131064,-4.61862 -1.473138,-6.22282 -0.477404,-0.47741 -0.868009,-1.02316 -0.868009,-1.21278 0,-0.18962 0.329569,-0.70955 0.732377,-1.15541 3.15431,-3.49145 0.08671,-9.29925 -4.653339,-8.81003 -4.351867,0.44915 -6.403973,5.3813 -3.675275,8.83337 0.452597,0.57258 0.822901,1.16291 0.822897,1.31186 -4e-6,0.14895 -0.310526,0.51857 -0.69005,0.8214 -1.004369,0.80138 -1.871604,2.5264 -2.003963,3.98607 -0.397531,4.38406 3.872636,7.66098 8.10673,6.22111 z m -4.09959,-1.5774 c -2.03334,-1.00648 -3.132394,-3.75572 -2.297697,-5.74759 1.44058,-3.4377 6.04966,-3.98236 8.096871,-0.9568 0.792403,1.17108 0.989433,2.20507 0.688007,3.61057 -0.593852,2.76903 -3.929498,4.35984 -6.487181,3.09382 z m 1.134654,-10.37903 c -2.99906,-0.67281 -4.053281,-4.42778 -1.859132,-6.62193 1.631866,-1.63186 4.314702,-1.5 5.817464,0.28593 2.392599,2.84344 -0.301803,7.1563 -3.958332,6.336 z m -25.019563,-19.75634 c 0.06701,-0.17463 0.06876,-0.4558 0.0039,-0.62484 -0.150595,-0.39245 -1.706995,-0.62915 -2.930445,-0.44568 -0.51976,0.0779 -1.99613,0.0752 -3.28084,-0.006 -2.00061,-0.12659 -2.33583,-0.19951 -2.33583,-0.5081 0,-0.19816 1.80789,-2.78017 4.01753,-5.73779 2.85382,-3.819868 4.118926,-5.689984 4.367605,-6.456331 0.981009,-3.023138 -1.147107,-6.62183 -4.310545,-7.289231 -3.24319,-0.684226 -6.55488,1.690483 -6.7845,4.864951 -0.0945,1.306677 0.0833,1.615478 0.79945,1.388186 0.27631,-0.0877 0.45532,-0.39156 0.53799,-0.913246 0.31751,-2.003483 1.46789,-3.372261 3.22769,-3.84048 2.68458,-0.714268 5.334519,1.4108 5.340274,4.282541 0.0022,1.076518 -0.550374,1.944569 -5.265714,8.272632 -4.30274,5.774358 -4.9426,6.787608 -4.54033,7.189878 0.0776,0.0776 2.59154,0.14111 5.58652,0.14111 4.645107,0 5.46332,-0.0467 5.56725,-0.3175 z m 29.556788,-9.630835 c 0.05821,-5.296959 0.05821,-10.010585 0,-10.474725 -0.07566,-0.603264 -0.217864,-0.86543 -0.498733,-0.919433 -0.826306,-0.158874 -0.873705,0.18948 -0.982933,7.22403 -0.105834,6.815962 -0.105834,6.815962 -3.912934,6.815962 -3.375279,0 -3.81476,-0.03976 -3.874609,-0.35054 -0.03713,-0.192794 0.610277,-2.193044 1.438681,-4.445 2.796238,-7.601363 3.218885,-8.85766 3.091555,-9.189478 -0.08112,-0.211391 -0.327484,-0.306612 -0.682386,-0.263742 -0.452171,0.05462 -0.627327,0.263849 -0.942147,1.125425 -0.212693,0.582084 -1.448871,3.96203 -2.747063,7.51099 -1.70318,4.656111 -2.304112,6.54194 -2.158365,6.773334 0.16721,0.265466 1.018013,0.338898 4.94171,0.426511 4.739724,0.105833 4.739724,0.105833 4.845558,2.54 0.05821,1.338791 0.186258,2.558671 0.284556,2.710851 0.0983,0.15218 0.384048,0.24743 0.635,0.21167 0.456277,-0.065 0.456277,-0.065 0.56211,-9.695855 z m 24.553334,60.953795 c -1.955796,-0.91045 -2.841841,-2.29441 -2.841841,-4.43879 0,-1.62255 0.546995,-2.85611 1.634198,-3.68536 1.740803,-1.32777 3.428208,-1.52117 5.242818,-0.60089 3.476544,1.76313 3.682869,6.27288 0.386778,8.45412 -1.190912,0.78811 -3.064385,0.9029 -4.421953,0.27092 z M 2.908023,149.6128 c -0.2253679,-0.0574 -2.32086788,-1.1273 -4.6566667,-2.37753 -2.3358009,-1.25024 -6.7234096,-3.58484 -9.7502433,-5.18801 -3.026833,-1.60317 -5.693799,-3.09659 -5.926592,-3.31872 -0.421947,-0.40262 -0.420159,-0.40991 0.577898,-2.35598 1.448012,-2.82342 1.792618,-3.32795 2.27307,-3.32795 0.401123,0 1.955349,0.80613 15.19293563,7.88007 6.25094207,3.3404 6.50935537,3.56181 6.50935537,5.57724 0,2.18873 -2.0132569,3.67293 -4.219757,3.11088 z m -47.42691,-6.83342 c -5.805494,-0.668 -11.122884,-3.69278 -14.63218,-8.32347 -1.272517,-1.67915 -2.92025,-5.11196 -3.480208,-7.2505 -0.567396,-2.16695 -0.765421,-6.20008 -0.420307,-8.56033 0.719332,-4.91955 3.582755,-9.89017 7.505453,-13.02871 2.956519,-2.36551 6.229278,-3.82794 9.898043,-4.42294 5.245623,-0.85074 10.289627,0.22829 14.939141,3.19583 1.503202,0.95942 4.345544,3.70637 5.481587,5.29761 1.297356,1.81721 2.72945,4.93953 3.292259,7.17796 0.62469,2.48453 0.673951,7.67541 0.09328,9.82978 -1.058785,3.92826 -2.595813,6.77405 -5.147039,9.52968 -4.396101,4.74832 -11.181415,7.28558 -17.530033,6.55509 z m 2.495938,-8.67813 c 3.783742,-1.41568 5.566721,-5.78492 3.862095,-9.46418 -1.312951,-2.83387 -4.662735,-4.5435 -7.598854,-3.87821 -1.561658,0.35384 -1.616679,0.25026 -1.616679,-3.04366 0,-1.8872 0.08215,-2.8714 0.254,-3.04325 0.181619,-0.18162 1.535773,-0.254 4.751983,-0.254 4.038047,0 4.518865,-0.0373 4.702219,-0.36496 0.129561,-0.23151 0.130685,-0.50238 0.0031,-0.74083 -0.184442,-0.34463 -0.639841,-0.37588 -5.477937,-0.37588 -5.000359,0 -5.288251,0.0215 -5.495887,0.40942 -0.131081,0.24493 -0.219113,2.19477 -0.219113,4.85321 0,3.7048 0.05381,4.49761 0.323558,4.76736 0.20408,0.20408 0.458099,0.26352 0.687916,0.16097 0.200398,-0.0894 0.745359,-0.34268 1.211026,-0.5628 0.566354,-0.26771 1.302173,-0.39822 2.2225,-0.39418 2.445169,0.0107 4.519149,1.53311 5.208344,3.82313 0.401483,1.33402 0.371009,2.17549 -0.126983,3.5065 -1.088284,2.9087 -4.523598,4.34277 -7.419171,3.09713 -0.572249,-0.24617 -1.185219,-0.39204 -1.362155,-0.32414 -0.498052,0.19112 -0.380143,0.93535 0.209387,1.32162 1.535976,1.00641 3.98189,1.21718 5.880682,0.50675 z m 21.316562,1.46175 c -1.105958,-0.59074 -2.201333,-1.26013 -2.434166,-1.48754 -0.422902,-0.41305 -0.422652,-0.4147 0.243996,-1.61907 0.999943,-1.80649 1.018934,-1.80914 3.563625,-0.49752 2.426874,1.25089 2.963242,1.69662 2.770898,2.30264 -0.273369,0.86132 -1.397129,2.38133 -1.758442,2.3785 -0.206292,-0.002 -1.279952,-0.48627 -2.385911,-1.07701 z"
         id="path1232" />
      <path
         style="fill:#242424;fill-opacity:1;stroke-width:0.211667"
         d="m -108.3365,171.34468 c -6.47346,-0.95437 -11.79026,-5.57154 -14.00167,-12.15923 -0.49738,-1.48167 -0.49738,-1.48167 -0.55661,-36.61834 -0.0533,-31.601988 -0.025,-35.306824 0.28137,-36.828132 0.68432,-3.398453 2.39029,-6.425175 5.04023,-8.942356 1.92905,-1.832412 3.85765,-2.99444 6.48513,-3.907446 2.01083,-0.698732 2.01083,-0.698732 37.676663,-0.698732 40.227284,0 36.514841,-0.155503 40.3225,1.688987 4.402309,2.132548 7.695809,6.184443 9.036107,11.116847 0.480541,1.768431 0.488893,1.981778 0.488893,12.488334 0,9.398638 -0.03864,10.689168 -0.320078,10.689168 -0.176043,0 -0.888183,-0.61913 -1.582532,-1.37583 -4.240056,-4.62086 -9.318578,-7.055068 -15.71864,-7.534176 -1.362244,-0.101977 -1.957916,-0.228168 -1.957916,-0.414782 0,-0.147517 1.23825,-3.919345 2.751666,-8.381837 1.513417,-4.462495 2.751667,-8.33099 2.751667,-8.596657 0,-0.323741 -0.179049,-0.551106 -0.542946,-0.689459 -0.707018,-0.268808 -9.213757,-0.268808 -9.920774,0 -0.367919,0.139883 -0.542947,0.365054 -0.542947,0.6985 0,0.939666 0.271446,1.000072 4.493976,1.000072 3.164924,0 4.008725,0.05928 4.096412,0.287786 0.06074,0.158285 -0.791239,2.944347 -1.893284,6.191251 -3.423878,10.087621 -3.350014,9.89903 -3.945437,10.073543 -0.291042,0.0853 -1.434042,0.39954 -2.54,0.698309 -7.869286,2.12583 -14.129383,8.70572 -16.016948,16.83517 -0.5489,2.36403 -0.498856,7.99462 0.09029,10.1588 1.142007,4.19505 2.837419,7.33625 5.470087,10.13479 2.859051,3.03919 6.152875,5.11756 9.942047,6.27333 0.975283,0.29748 1.826355,0.6268 1.891269,0.73184 0.06491,0.10503 -0.202654,0.64772 -0.594595,1.20599 -1.027394,1.46338 -1.300366,2.30279 -1.293309,3.97701 0.01454,3.45054 2.564329,6.11926 6.119186,6.40461 0.938634,0.0754 1.37697,0.19889 1.37697,0.3881 0,0.15267 -1.005321,1.86503 -2.234049,3.80525 -1.354008,2.13804 -2.208652,3.69722 -2.169583,3.95808 0.09174,0.6125 0.705578,0.95771 1.175679,0.66118 0.374769,-0.23639 7.027114,-10.55753 7.999009,-12.41049 1.075381,-2.05025 0.853421,-4.7672 -0.547442,-6.70104 -0.360695,-0.49792 -0.60622,-1.03454 -0.545611,-1.19248 0.06061,-0.15795 0.519914,-0.39061 1.02068,-0.51703 4.240474,-1.07056 8.105734,-3.39796 11.174876,-6.72878 1.038798,-1.12737 1.559335,-1.54626 1.804549,-1.45216 0.313533,0.12031 0.337439,1.09179 0.265009,10.76918 -0.07961,10.63693 -0.07961,10.63693 -0.652461,12.49888 -1.056642,3.43442 -2.391154,5.58795 -4.965822,8.01348 -2.450165,2.30823 -5.848683,3.92481 -9.243814,4.39703 -1.944127,0.2704 -68.134917,0.27366 -69.967797,0.003 z m 5.19327,-6.781 c 1.56559,-0.28941 2.51739,-0.77292 3.567134,-1.81208 3.938389,-3.89865 1.412981,-10.63648 -4.135464,-11.03347 -1.09563,-0.0784 -1.44983,-0.18064 -1.44983,-0.41855 0,-0.17314 1.00013,-1.90208 2.2225,-3.84207 1.22238,-1.94 2.2225,-3.67887 2.2225,-3.86417 0,-0.50215 -0.56503,-0.87622 -1.1085,-0.73386 -0.59106,0.15484 -8.11129,11.96167 -8.5524,13.42736 -1.10793,3.68138 1.23298,7.53305 5.03212,8.27968 0.50854,0.0999 0.93093,0.19215 0.93866,0.2049 0.008,0.0128 0.5762,-0.0807 1.26328,-0.20774 z m -2.49248,-1.97525 c -1.1638,-0.41536 -1.79167,-0.88305 -2.37318,-1.76771 -1.62304,-2.46915 -0.74217,-5.54975 1.98008,-6.92484 0.534,-0.26974 1.09231,-0.3427 2.16047,-0.28235 1.87402,0.1059 3.00222,0.83722 3.83987,2.4891 0.94459,1.86278 0.71803,3.55201 -0.6911,5.15287 -1.2904,1.46596 -3.13903,1.96719 -4.91614,1.33293 z m 34.505499,-8.50876 c 0.03227,-5.57382 0.0082,-10.34219 -0.05341,-10.59636 -0.126162,-0.52018 -0.79284,-0.81563 -1.255035,-0.55619 -0.168195,0.0944 -1.508104,1.73579 -2.977575,3.64751 -2.679596,3.48604 -2.956769,4.05522 -2.204345,4.52664 0.555714,0.34817 0.925597,0.0606 2.517735,-1.95783 0.831763,-1.05444 1.647856,-1.91716 1.813541,-1.91716 0.255462,0 0.301244,1.27062 0.301244,8.36084 0,8.17714 0.0096,8.37047 0.438848,8.79968 0.395068,0.39506 0.484816,0.40833 0.899584,0.13297 0.460734,-0.30587 0.460734,-0.30587 0.51941,-10.4401 z m -30.258619,-20.06358 c 3.048512,-1.5448 4.303308,-5.28276 2.78998,-8.3112 -0.348772,-0.69795 -0.969319,-1.57402 -1.378994,-1.94682 -0.788246,-0.71729 -0.783296,-1.06931 0.02442,-1.73753 0.199507,-0.16505 0.584776,-0.77634 0.856156,-1.35843 1.395423,-2.99306 -0.251001,-6.69124 -3.394542,-7.62477 -1.83346,-0.54448 -3.13389,-0.34778 -4.83558,0.73139 -2.03849,1.29278 -3.27671,4.9607 -1.82967,5.41997 0.61145,0.19406 1.16993,-0.4007 1.30219,-1.38677 0.26925,-2.00742 1.95431,-3.30359 4.06697,-3.12839 3.03322,0.25154 4.479158,3.75404 2.51395,6.08955 -0.68025,0.80844 -1.1687,1.07723 -2.5116,1.38212 -0.84297,0.19139 -1.07241,0.33652 -1.1275,0.71316 -0.0996,0.6812 0.2751,1.01978 1.29851,1.17325 2.37658,0.35639 4.259115,2.78266 3.850217,4.96227 -0.472047,2.51624 -2.382207,4.00107 -4.880607,3.79388 -1.99009,-0.16503 -3.49409,-1.58159 -3.88162,-3.65595 -0.22343,-1.19595 -0.64337,-1.69042 -1.26741,-1.49235 -1.39366,0.44233 -0.23137,4.2066 1.77026,5.73333 1.89797,1.44765 4.5417,1.70397 6.63487,0.64329 z m 31.47013,0.0868 c 2.178414,-1.05455 3.486685,-3.12307 3.490245,-5.51846 0.0027,-1.83821 -0.438996,-3.05119 -1.590518,-4.36756 -0.521077,-0.59567 -0.947414,-1.14921 -0.947414,-1.23009 0,-0.0809 0.274678,-0.49413 0.610396,-0.91834 1.962053,-2.47925 1.688349,-5.95122 -0.625265,-7.93159 -0.912766,-0.78129 -2.513711,-1.41221 -3.583464,-1.41221 -2.049056,0 -4.498666,1.67054 -5.227595,3.56501 -0.767381,1.9944 -0.223289,4.77487 1.183049,6.04572 0.616594,0.55718 0.568806,0.76698 -0.387373,1.70067 -1.8661,1.82219 -2.372675,4.79818 -1.217263,7.15107 1.506323,3.06749 5.257817,4.38615 8.295202,2.91578 z m -4.445187,-1.56791 c -2.47789,-1.09818 -3.414293,-4.34688 -1.882015,-6.52935 2.328842,-3.31704 7.389034,-2.14355 8.029427,1.86207 0.283731,1.77472 -0.746648,3.6764 -2.467688,4.55441 -0.941949,0.48055 -2.726593,0.53529 -3.679724,0.11287 z m 0.696672,-10.49455 c -2.740658,-0.82615 -3.599149,-4.44464 -1.516491,-6.3919 2.722739,-2.54574 7.195158,0.0352 6.24378,3.6032 -0.558688,2.09526 -2.746405,3.38583 -4.727289,2.7887 z m -24.720838,-19.47579 c 0.159793,-0.29857 0.160511,-0.54675 0.0024,-0.84211 -0.209641,-0.39172 -0.487109,-0.4225 -4.293697,-0.47625 -3.91503,-0.0553 -4.069,-0.0735 -4.05464,-0.4808 0.008,-0.23284 1.83013,-2.867125 4.04872,-5.853977 4.348851,-5.854783 4.712892,-6.556161 4.401604,-8.480313 -0.523403,-3.235283 -2.795164,-5.243618 -5.925254,-5.238166 -3.12578,0.0054 -5.49309,2.080516 -5.76246,5.051093 -0.10142,1.118525 -0.0664,1.272997 0.33757,1.489198 0.69211,0.370408 1.21668,-0.03061 1.38055,-1.055408 0.21355,-1.335477 0.89143,-2.466838 1.86348,-3.110112 1.13479,-0.750965 3.04443,-0.818326 4.18877,-0.147754 1.61909,0.948777 2.563459,3.380323 1.91804,4.938514 -0.14022,0.338516 -2.34204,3.411432 -4.89294,6.828701 -2.5509,3.417272 -4.6972,6.428764 -4.76956,6.692224 -0.29142,1.06107 -0.0406,1.1085 5.86085,1.1085 5.253339,0 5.478941,-0.0168 5.696531,-0.42334 z m 29.39778,-0.077 c 0.172845,-0.20827 0.224303,-3.165664 0.184666,-10.613222 -0.05092,-9.567731 -0.0821,-10.341627 -0.425363,-10.558116 -0.270104,-0.170347 -0.47073,-0.170361 -0.740833,-5.1e-5 -0.337894,0.213054 -0.375332,0.815389 -0.426399,6.86009 -0.03767,4.458796 -0.132698,6.718967 -0.290499,6.909105 -0.357381,0.430617 -7.13308,0.407384 -7.29901,-0.02502 -0.06492,-0.169183 0.853791,-2.955246 2.041584,-6.191251 2.795473,-7.615938 2.659423,-7.171702 2.321198,-7.579239 -0.157901,-0.19026 -0.517366,-0.30898 -0.826672,-0.273025 -0.632405,0.07351 -0.555979,-0.105235 -4.044461,9.459166 -2.191658,6.008878 -2.191658,6.008878 -1.705041,6.402917 0.440487,0.356686 0.91363,0.394036 4.991354,0.394036 3.91247,0 4.52163,0.04402 4.633216,0.334813 0.07066,0.184145 0.12848,1.308095 0.12848,2.497667 0,2.21189 0.148312,2.67086 0.863083,2.67086 0.195294,0 0.462909,-0.12992 0.594697,-0.28872 z m 24.795211,51.28764 c -1.850523,-0.77775 -3.087916,-2.79169 -2.924679,-4.76012 0.369634,-4.45728 6.105447,-5.9101 8.57863,-2.17287 0.509571,0.77002 0.583891,1.08832 0.583891,2.50074 0,1.41241 -0.07432,1.73072 -0.583891,2.50073 -0.917116,1.38586 -2.062188,2.02881 -3.731882,2.09543 -0.769576,0.0307 -1.634505,-0.0431 -1.922069,-0.16391 z m 46.9836753,-4.37603 c -0.3044782,-0.11701 -2.62475765,-1.34636 -14.6745583,-7.77497 -3.006879,-1.60418 -5.516342,-3.04513 -5.576582,-3.20211 -0.06024,-0.15698 0.453483,-1.3597 1.141603,-2.6727 0.916182,-1.74817 1.369362,-2.40465 1.692772,-2.45218 0.481929,-0.0708 19.7210258,10.06339 20.5589591,10.82945 1.2180697,1.11359 1.4043935,2.82625 0.4528545,4.16257 -0.7334949,1.0301 -2.4354981,1.55558 -3.5950483,1.10994 z m -47.2016663,-6.74801 c -8.619315,-1.04715 -15.429884,-6.75961 -17.90116,-15.01486 -0.799,-2.66905 -0.953887,-7.12135 -0.349464,-10.04548 1.582576,-7.65632 7.552258,-13.87918 15.256298,-15.90331 2.576269,-0.67688 6.388149,-0.75589 9.127427,-0.18917 4.348598,0.89967 7.553303,2.64065 10.694399,5.80984 4.068972,4.10537 6.036877,8.90305 6.029718,14.70023 -0.01196,9.68686 -6.733394,18.0764 -16.189718,20.20765 -1.526936,0.34414 -5.358257,0.59416 -6.6675,0.4351 z m 2.78885,-8.49502 c 1.317254,-0.58404 2.844256,-2.02232 3.480884,-3.27865 1.551999,-3.06272 0.788953,-6.7536 -1.823081,-8.81829 -1.518662,-1.20043 -2.79294,-1.56471 -5.151825,-1.47274 -1.940662,0.0756 -1.940662,0.0756 -1.940662,-2.88768 0,-2.96333 0,-2.96333 4.534345,-3.02057 2.909373,-0.0367 4.635074,-0.14082 4.815417,-0.2905 0.416348,-0.34554 0.341043,-1.19277 -0.128347,-1.44398 -0.248998,-0.13326 -2.363868,-0.21912 -5.3975,-0.21912 -4.70586,0 -5.012034,0.024 -5.411415,0.42334 -0.396538,0.39653 -0.423333,0.70555 -0.423333,4.88224 0,2.66887 0.08796,4.62328 0.219113,4.86834 0.285479,0.53342 0.905212,0.5177 2.083822,-0.0528 0.525209,-0.25425 1.462384,-0.50436 2.08261,-0.55579 0.949137,-0.0787 1.340936,0.0115 2.474542,0.56954 1.498225,0.73757 2.305814,1.63375 2.812625,3.12115 0.848298,2.48962 -0.556307,5.52529 -3.035935,6.56135 -1.03156,0.43101 -3.178387,0.36229 -4.278641,-0.13696 -1.105146,-0.50148 -1.377285,-0.51791 -1.720854,-0.10394 -0.484878,0.58424 -0.08032,1.29322 1.000322,1.75305 1.463992,0.62296 1.701292,0.66564 3.336563,0.60018 0.925849,-0.0371 1.852928,-0.22393 2.47135,-0.49812 z m 20.817874,1.13801 c -1.160926,-0.62691 -2.199623,-1.28069 -2.308217,-1.45284 -0.245908,-0.38985 1.016614,-2.7017 1.475423,-2.7017 0.417516,0 3.875496,1.75179 4.53107,2.29541 0.529166,0.4388 0.529166,0.4388 -0.121747,1.66461 -0.405081,0.76286 -0.804788,1.24631 -1.058333,1.28009 -0.224081,0.0298 -1.35727,-0.45866 -2.518196,-1.08557 z"
         id="path1230" />
      <path
         style="fill:#242424;fill-opacity:1;stroke-width:0.211667"
         d="m -109.28889,171.04614 c -3.23972,-0.71471 -5.81892,-2.07184 -8.19201,-4.31049 -1.71784,-1.62053 -2.88412,-3.24958 -3.89894,-5.44603 -1.56542,-3.38814 -1.45571,-0.41404 -1.45571,-39.46334 0,-32.644224 0.0252,-35.128839 0.36963,-36.469352 1.43459,-5.583004 5.19828,-9.937315 10.35682,-11.982093 3.14327,-1.245946 1.12109,-1.184391 38.90938,-1.184391 34.819167,0 34.819167,0 36.610796,0.477535 3.480304,0.927627 6.155273,2.538251 8.52152,5.130885 1.620795,1.775862 2.712779,3.658572 3.622089,6.244914 0.669762,1.905 0.669762,1.905 0.733431,12.783909 0.03502,5.983403 0.009,11.021323 -0.05777,11.195383 -0.08704,0.22683 -0.573245,-0.16984 -1.716348,-1.40028 -3.570849,-3.84367 -7.949813,-6.25914 -12.917661,-7.125457 -1.007328,-0.175664 -2.371478,-0.319388 -3.031446,-0.319388 -0.659968,0 -1.306381,-0.10644 -1.436476,-0.236535 -0.174269,-0.174269 0.16785,-1.414029 1.29964,-4.709584 4.314901,-12.564176 4.25429,-12.361063 3.82894,-12.831071 -0.365902,-0.404316 -0.643407,-0.426144 -5.417731,-0.426144 -4.362319,0 -5.077845,0.04577 -5.375959,0.343883 -0.189135,0.189136 -0.315002,0.543939 -0.279703,0.788452 0.11904,0.824554 0.88159,0.977891 4.879599,0.981211 3.540933,0.0029 3.757083,0.02612 3.757083,0.402853 0,0.507198 -5.013863,15.246368 -5.306236,15.598656 -0.119579,0.144085 -0.951033,0.423746 -1.847674,0.62147 -6.49239,1.431674 -12.322738,6.018164 -15.331929,12.060974 -1.607405,3.22787 -2.330027,6.33343 -2.339471,10.05417 -0.02537,9.99627 6.227394,18.62387 15.723643,21.6956 0.989542,0.32008 1.887965,0.6637 1.996495,0.7636 0.118508,0.10908 -0.08218,0.57083 -0.50242,1.15601 -1.926886,2.68314 -1.66269,6.25268 0.632672,8.54805 1.198262,1.19826 2.856556,1.91508 4.430369,1.91508 0.570844,0 1.090484,0.0851 1.154752,0.18907 0.06427,0.10399 -0.865279,1.75226 -2.065664,3.66282 -1.200385,1.91057 -2.247129,3.64214 -2.326102,3.84793 -0.25045,0.65267 0.225728,1.22295 0.959906,1.14962 0.606485,-0.0606 0.919658,-0.48447 4.348722,-5.88611 4.581512,-7.21704 4.702907,-7.46308 4.699554,-9.525 -0.0028,-1.6967 -0.389009,-2.86133 -1.379764,-4.16028 -0.285187,-0.37389 -0.51852,-0.72639 -0.51852,-0.78333 0,-0.0569 0.973847,-0.40607 2.164104,-0.77585 3.934043,-1.22222 6.832604,-3.01006 9.819657,-6.05681 1.061275,-1.08249 1.989963,-1.90779 2.06375,-1.834 0.07378,0.0738 0.134156,4.77332 0.134156,10.4434 0,10.18312 -0.0062,10.33374 -0.507738,12.31081 -1.490133,5.87429 -5.647759,10.2469 -11.663095,12.26618 -1.481667,0.49738 -1.481667,0.49738 -36.83,0.53531 -28.655721,0.0307 -35.588791,-0.0151 -36.618341,-0.24224 z m 8.01218,-6.96784 c 3.784578,-1.85162 4.894696,-6.71343 2.286067,-10.01194 -1.018467,-1.28781 -2.599287,-2.15453 -4.548877,-2.49402 -0.83382,-0.14519 -1.49662,-0.35965 -1.47288,-0.47657 0.0237,-0.11691 1.00005,-1.73729 2.16958,-3.60083 2.21733,-3.5331 2.48718,-4.29403 1.67667,-4.7278 -0.36409,-0.19486 -0.54536,-0.16604 -0.95158,0.1513 -0.62426,0.48766 -7.83792,11.88841 -8.27159,13.07274 -0.43115,1.17742 -0.41934,3.40957 0.0236,4.46427 0.83207,1.98122 2.35079,3.43599 4.22987,4.05175 1.32685,0.4348 3.48273,0.24451 4.85913,-0.4289 z m -4.84593,-1.79821 c -1.66766,-0.75751 -2.74156,-2.57277 -2.59163,-4.38072 0.38705,-4.66728 6.54012,-5.88525 8.66729,-1.71565 0.668661,1.31069 0.491778,3.41282 -0.38955,4.62946 -1.27185,1.75573 -3.68164,2.37741 -5.68611,1.46691 z m 34.785587,2.26053 c 0.190747,-0.19075 0.254,-2.876 0.254,-10.783 0,-10.529 0,-10.529 -0.466433,-10.8557 -0.395472,-0.277 -0.532331,-0.28352 -0.899584,-0.0428 -0.476116,0.31205 -5.023844,6.03672 -5.518516,6.94669 -0.352061,0.64763 -0.232389,1.145 0.350573,1.45699 0.588673,0.31504 0.935988,0.0421 2.60949,-2.05096 0.819667,-1.02514 1.585553,-1.86745 1.70197,-1.8718 0.136819,-0.005 0.231248,2.97941 0.267043,8.44004 0.03806,5.80638 0.128894,8.53653 0.290499,8.73125 0.292191,0.35207 1.072001,0.36826 1.410958,0.0293 z m 1.367214,-30.29691 c 1.15954,-0.48449 2.590125,-1.9239 3.142486,-3.16187 0.371619,-0.83289 0.495274,-1.49883 0.500225,-2.69389 0.0078,-1.87573 -0.491185,-3.09379 -1.805825,-4.40843 -0.458388,-0.45839 -0.833434,-0.92207 -0.833434,-1.0304 0,-0.10834 0.285475,-0.47047 0.634391,-0.80476 1.56135,-1.49586 1.871874,-4.33314 0.709953,-6.48687 -2.642866,-4.89879 -10.101216,-3.36804 -10.603964,2.17635 -0.145936,1.60941 0.213427,2.82738 1.230831,4.1716 0.823673,1.08826 0.823673,1.08826 0.117039,1.73128 -2.567083,2.336 -2.704876,6.63327 -0.29101,9.07548 1.96572,1.98881 4.608042,2.51421 7.199308,1.43151 z m -3.93156,-1.626 c -1.726106,-0.5181 -2.985554,-2.31049 -2.972116,-4.22976 0.03321,-4.74222 6.852956,-5.85272 8.336515,-1.35749 0.381697,1.15655 0.165809,2.87613 -0.484448,3.85873 -0.979392,1.47996 -3.148429,2.24825 -4.879951,1.72852 z m -0.250349,-10.91322 c -1.415519,-0.73808 -2.060152,-1.76161 -2.060152,-3.27106 0,-1.84282 0.911234,-3.05253 2.703043,-3.58841 1.5855,-0.47418 3.683104,0.54924 4.330842,2.11302 0.383307,0.92538 0.176731,2.75547 -0.402914,3.56951 -0.962415,1.35159 -3.153732,1.91583 -4.570819,1.17694 z m -27.303552,12.43139 c 2.30265,-1.08934 3.564926,-3.08077 3.57629,-5.6421 0.008,-1.81532 -0.577422,-3.27165 -1.792124,-4.45777 -0.969956,-0.94714 -1.005106,-1.12814 -0.340386,-1.75261 0.976281,-0.91717 1.51732,-2.3391 1.502804,-3.94962 -0.02068,-2.29521 -1.107751,-4.07033 -3.100864,-5.06354 -1.2278,-0.61184 -2.99362,-0.72986 -4.43936,-0.2967 -1.86211,0.5579 -3.76248,3.05377 -3.76705,4.94749 -0.002,0.96028 0.28448,1.36525 0.96685,1.36525 0.60478,0 0.85729,-0.34143 1.03065,-1.39357 0.5025,-3.04976 3.95164,-4.23609 6.22691,-2.14174 0.98856,0.90994 1.35799,2.57847 0.86173,3.89195 -0.46505,1.23085 -2.01613,2.39503 -3.19099,2.39503 -0.57955,0 -1.24055,0.57499 -1.24055,1.07913 0,0.48726 0.78702,1.03753 1.48392,1.03753 0.91426,0 2.38416,0.89191 3.0505,1.85099 1.26423,1.81962 0.925648,4.19892 -0.815,5.72723 -2.41415,2.11965 -6.15876,0.82298 -6.90889,-2.39238 -0.33393,-1.43135 -0.4794,-1.68169 -1.02421,-1.7625 -1.48267,-0.21993 -1.43566,2.42397 0.082,4.614 1.6603,2.39582 5.08638,3.24556 7.83774,1.94393 z m 2.89183,-31.28657 c 0.47506,-0.42993 0.496405,-0.9918 0.05446,-1.43375 -0.278238,-0.27823 -0.968316,-0.33261 -4.22084,-0.33261 -2.13852,0 -3.94223,-0.0874 -4.00825,-0.19422 -0.066,-0.10682 1.73032,-2.677373 3.99188,-5.712339 2.26155,-3.034966 4.226775,-5.866168 4.367167,-6.291561 0.421839,-1.27819 0.155988,-3.455863 -0.5826,-4.772265 -2.210947,-3.940632 -7.729267,-4.188157 -10.200327,-0.457536 -0.70385,1.062624 -1.18578,2.793589 -0.99236,3.564263 0.303,1.207258 2.02962,0.721574 2.02962,-0.57092 0,-0.884316 0.72685,-2.174157 1.60081,-2.840768 0.79726,-0.608097 2.48546,-0.90538 3.58058,-0.630521 1.00017,0.251026 2.20098,1.558885 2.55759,2.785601 0.512564,1.763163 0.26839,2.289396 -3.25458,7.013976 -7.17,9.61555 -6.72821,8.95489 -6.39927,9.56951 0.11918,0.22268 0.33684,0.45329 0.48369,0.51245 0.14686,0.0592 2.59314,0.11509 5.43618,0.12428 4.528098,0.0147 5.217167,-0.0267 5.556246,-0.33359 z m 29.597083,-0.2847 c 0.411573,-0.41157 0.423334,-0.70555 0.423334,-10.583332 0,-9.877778 -0.01177,-10.17176 -0.423334,-10.583334 -0.232833,-0.232833 -0.518583,-0.423333 -0.635,-0.423333 -0.116416,0 -0.402166,0.1905 -0.635,0.423333 -0.405354,0.405354 -0.423333,0.705556 -0.423333,7.068188 0,5.863978 -0.03935,6.659952 -0.334812,6.773334 -0.677414,0.259947 -6.58734,0.141922 -6.815117,-0.136104 -0.155024,-0.189226 0.440453,-2.066138 2.090751,-6.589933 1.269132,-3.478943 2.307511,-6.547404 2.307511,-6.818803 0,-0.279871 -0.186692,-0.593369 -0.431328,-0.724294 -0.826177,-0.442156 -1.201396,-0.06862 -1.981384,1.972513 -1.91955,5.023233 -4.783954,13.058235 -4.783954,13.419574 0,0.848946 0.330938,0.910526 4.893354,0.910526 2.411946,0 4.536021,0.05781 4.720167,0.12848 0.276951,0.106276 0.334812,0.526942 0.334812,2.434167 0,2.023468 0.05182,2.357508 0.423333,2.729018 0.232834,0.23284 0.518584,0.42334 0.635,0.42334 0.116417,0 0.402167,-0.1905 0.635,-0.42334 z m 25.02723,51.15246 c -3.815535,-1.38378 -4.177242,-6.65677 -0.57973,-8.45137 1.734636,-0.86531 3.552593,-0.60968 5.05234,0.71045 2.089582,1.83933 2.143686,4.62489 0.127808,6.5805 -1.404285,1.3623 -2.961024,1.75498 -4.600418,1.16042 z m 46.7277703,-4.46984 c -1.5091685,-0.59314 -19.7984643,-10.46824 -20.0025003,-10.80011 -0.161501,-0.26269 0.06481,-0.87587 0.954924,-2.58727 0.641625,-1.23365 1.312471,-2.33501 1.490768,-2.44748 0.244873,-0.15446 2.728293,1.07639 10.1514722,5.03134 5.40501205,2.8797 10.0492221,5.38124 10.3204666,5.55896 1.2583435,0.8245 1.5605675,2.90588 0.6040438,4.15995 -0.3151759,0.41322 -0.7376182,0.83938 -0.9387586,0.94703 -0.6889772,0.36873 -1.8366148,0.42992 -2.5804157,0.13758 z M -46.52972,142.15739 c -5.023216,-1.06776 -9.682569,-4.09204 -12.620515,-8.1917 -1.301551,-1.81621 -2.733455,-4.93857 -3.291783,-7.17796 -0.654755,-2.62612 -0.657559,-7.46534 -0.0057,-9.86692 2.026165,-7.46503 7.596592,-13.14103 14.753853,-15.03349 2.803597,-0.7413 5.306964,-0.90288 7.995901,-0.51611 7.357366,1.05825 13.001756,5.19247 16.121519,11.80816 1.660593,3.52142 2.271042,7.16048 1.835131,10.93979 -0.925933,8.02779 -6.290845,14.77118 -13.781718,17.32282 -1.105958,0.37673 -2.629958,0.78384 -3.386667,0.9047 -2.078554,0.33197 -5.576544,0.24507 -7.62,-0.18929 z m 4.758605,-7.8595 c 1.509419,-0.56474 2.844487,-1.78664 3.723486,-3.40785 0.673261,-1.24174 0.725409,-1.47487 0.725409,-3.24293 0,-1.61889 -0.08428,-2.08478 -0.561205,-3.10205 -0.692547,-1.47722 -1.957645,-2.73294 -3.5325,-3.50632 -1.076423,-0.52861 -1.412708,-0.58686 -3.314628,-0.57419 -1.276863,0.009 -2.178366,-0.0755 -2.272176,-0.21167 -0.238968,-0.34693 -0.190718,-4.75075 0.05712,-5.21385 0.206087,-0.38507 0.48674,-0.40942 4.720167,-0.40942 4.724567,0 5.009053,-0.0541 5.009053,-0.9525 0,-0.91513 -0.233866,-0.9525 -5.961553,-0.9525 -5.175136,0 -5.464738,0.0209 -5.672667,0.40942 -0.132488,0.24756 -0.219113,2.29952 -0.219113,5.19037 0,4.78096 0,4.78096 0.513398,5.01488 0.425839,0.19402 0.703671,0.1391 1.62906,-0.32204 2.75619,-1.37347 6.160247,-0.18147 7.308785,2.55932 0.412614,0.98464 0.354213,3.16865 -0.112186,4.19541 -0.517855,1.14005 -2.115276,2.51577 -3.309387,2.8501 -1.120254,0.31365 -2.751546,0.17287 -3.70401,-0.31967 -0.363239,-0.18784 -0.916049,-0.312 -1.228465,-0.27591 -0.494889,0.0572 -0.568028,0.16048 -0.568028,0.80233 0,0.64611 0.109067,0.79687 0.886925,1.22596 1.749133,0.96487 3.734164,1.04691 5.882513,0.24311 z m 21.176452,0.99176 c -1.160926,-0.62443 -2.207385,-1.28849 -2.325461,-1.47568 -0.159397,-0.2527 -0.07915,-0.59031 0.31161,-1.31092 0.28946,-0.53381 0.63732,-1.06395 0.773017,-1.17809 0.168967,-0.14213 0.836041,0.0885 2.116667,0.73186 2.472279,1.24199 2.923076,1.61636 2.754613,2.28757 -0.153979,0.6135 -1.001508,1.91881 -1.308003,2.01451 -0.116417,0.0363 -1.161517,-0.44481 -2.322443,-1.06925 z"
         id="path1228" />
      <path
         style="fill:#242424;fill-opacity:1;stroke-width:0.211667"
         d="m -108.32267,171.13871 c -0.63274,-0.093 -1.94345,-0.42703 -2.91269,-0.74232 -5.12682,-1.66773 -9.03966,-5.69547 -10.89115,-11.21094 -0.49738,-1.48167 -0.49738,-1.48167 -0.5563,-36.61834 -0.0649,-38.689943 -0.12384,-36.767703 1.22463,-39.936548 1.94875,-4.57949 5.48356,-7.820222 10.40357,-9.538046 1.97739,-0.690405 1.97739,-0.690405 37.008223,-0.749338 31.291469,-0.05264 35.208936,-0.0231 36.69933,0.276715 6.320551,1.271495 11.332934,5.97594 13.080304,12.276713 0.447778,1.614625 0.47129,2.136352 0.546811,12.133386 0.0434,5.745418 0.0248,10.587228 -0.04133,10.759568 -0.08569,0.2233 -0.682909,-0.25642 -2.078095,-1.66924 -4.142833,-4.19518 -8.772417,-6.411231 -14.581357,-6.979672 -1.380862,-0.135126 -2.510661,-0.317572 -2.510661,-0.405437 0,-0.08787 1.245072,-3.832693 2.766827,-8.321839 1.521754,-4.489145 2.736191,-8.375513 2.69875,-8.636373 -0.127199,-0.886209 -0.812231,-1.007814 -5.677243,-1.007814 -5.050145,0 -5.559925,0.103423 -5.680243,1.152393 -0.122995,1.072323 0.255294,1.1697 4.544039,1.1697 2.194804,0 3.916225,0.0863 3.986408,0.19986 0.104753,0.169496 -1.061257,3.740381 -4.583049,14.035503 -0.551655,1.612633 -0.706817,1.868545 -1.196745,1.973811 -7.913099,1.700218 -13.570263,5.997638 -16.85131,12.800978 -4.80582,9.96498 -1.547895,22.21852 7.586228,28.53294 1.898731,1.31259 4.55226,2.59847 6.449099,3.12519 0.739893,0.20545 1.388736,0.48685 1.441875,0.62533 0.05314,0.13847 -0.192773,0.66775 -0.54647,1.17617 -0.353698,0.50841 -0.79161,1.49589 -0.97314,2.19439 -0.594633,2.28806 -0.02576,4.38177 1.688507,6.21446 1.146698,1.22592 2.635561,1.93487 4.39924,2.09479 1.005199,0.0911 1.215473,0.17418 1.113576,0.43972 -0.06909,0.18005 -1.074157,1.82137 -2.233483,3.64739 -1.159326,1.82602 -2.107866,3.50765 -2.107866,3.73695 0,0.47862 0.623754,1.11752 1.091021,1.11752 0.17427,0 0.512517,-0.21431 0.751663,-0.47625 0.376144,-0.41199 4.744811,-7.20885 7.123491,-11.08287 1.949816,-3.17556 1.858116,-5.56148 -0.330219,-8.59198 -0.143083,-0.19814 -0.205647,-0.41476 -0.139033,-0.48138 0.06662,-0.0666 0.825246,-0.31351 1.685846,-0.54867 2.060679,-0.56308 5.454047,-2.24409 7.18471,-3.55916 0.762656,-0.57952 2.129786,-1.83151 3.038069,-2.7822 1.060814,-1.11034 1.724456,-1.65549 1.855643,-1.5243 0.127862,0.12786 0.174236,4.11252 0.124028,10.65677 -0.08655,11.28137 -0.07371,11.14208 -1.309945,14.2027 -1.947461,4.82143 -6.18155,8.49902 -11.550274,10.03218 -1.312919,0.37494 -2.958336,0.39436 -35.983333,0.42478 -19.034125,0.0175 -35.125202,-0.0442 -35.757952,-0.13719 z m 7.45086,-7.13597 c 3.701075,-2.01438 4.539271,-7.05987 1.697864,-10.2202 -1.243154,-1.38269 -2.720644,-2.13565 -4.465494,-2.27571 -1.10274,-0.0885 -1.32688,-0.16887 -1.24951,-0.44796 0.0519,-0.18705 1.05952,-1.85841 2.23926,-3.71414 1.17973,-1.85573 2.14497,-3.53166 2.14497,-3.72428 0,-0.51816 -0.7405,-1.095 -1.3029,-1.01493 -0.38704,0.0551 -1.33309,1.39344 -4.46338,6.31409 -2.59009,4.07149 -4.09144,6.64396 -4.3148,7.39312 -0.42635,1.43003 -0.30037,3.12613 0.34332,4.62243 0.53661,1.24738 2.14375,2.86832 3.33932,3.368 1.88453,0.78762 4.24862,0.66986 6.03135,-0.30042 z m -5.28242,-1.86097 c -4.16892,-2.07745 -2.73541,-8.36062 1.91593,-8.39767 4.0466,-0.0322 6.081363,4.69509 3.24146,7.53081 -1.47029,1.46812 -3.32518,1.77989 -5.15739,0.86686 z m 35.01826,2.26531 c 0.203568,-0.25265 0.264583,-2.71086 0.264583,-10.65959 0,-10.04899 -0.01156,-10.34277 -0.423333,-10.75454 -0.840547,-0.84055 -1.118032,-0.63682 -3.747842,2.75166 -2.820886,3.63469 -3.237158,4.25023 -3.237158,4.78681 0,0.58103 0.689288,1.01359 1.350645,0.8476 0.260223,-0.0653 1.101668,-0.95767 1.913081,-2.02883 0.796693,-1.05173 1.531273,-1.91224 1.632403,-1.91224 0.101128,0 0.183871,3.66092 0.183871,8.13539 0,4.5848 0.08713,8.36456 0.199646,8.66049 0.30186,0.79395 1.289994,0.88579 1.864104,0.17325 z m -30.36778,-30.14977 c 1.48841,-0.68141 2.792232,-2.05631 3.349459,-3.53202 0.860825,-2.27974 0.217708,-5.25904 -1.484024,-6.87486 -0.360107,-0.34193 -0.654735,-0.69889 -0.654735,-0.79326 0,-0.0944 0.31977,-0.62423 0.710602,-1.17748 0.909745,-1.2878 1.194898,-2.15604 1.192327,-3.63041 -0.0083,-4.77387 -5.854129,-7.45175 -9.484159,-4.34458 -2.01306,1.72311 -2.80306,5.01315 -1.31699,5.4848 0.7537,0.23922 1.23177,-0.23575 1.49019,-1.48051 0.40531,-1.9524 1.67419,-3.06771 3.49011,-3.06771 2.07983,0 3.5853,1.46699 3.5853,3.49366 0,1.87194 -1.22678,3.29246 -3.1119,3.60333 -1.12861,0.18612 -1.42382,0.42622 -1.42382,1.15801 0,0.73408 0.29287,0.96445 1.45097,1.14132 1.21515,0.18559 1.9431,0.58098 2.7394,1.48791 1.17713,1.34068 1.369543,2.81826 0.58612,4.5009 -0.76396,1.64082 -1.85189,2.28904 -3.8418,2.28904 -1.39059,0 -1.6047,-0.0594 -2.34379,-0.65 -0.90754,-0.72523 -1.68968,-2.11236 -1.87678,-3.32849 -0.0868,-0.56389 -0.27003,-0.8702 -0.61459,-1.0272 -0.59872,-0.27279 -1.29785,0.039 -1.49741,0.66771 -0.22791,0.71811 0.31124,2.69353 1.02037,3.73854 1.88655,2.78012 5.05808,3.70425 8.03515,2.3413 z m 31.502739,0.11544 c 1.395486,-0.61729 2.413305,-1.6115 3.141379,-3.0685 1.178538,-2.35847 0.799329,-5.1675 -0.962068,-7.12659 -0.51316,-0.57076 -0.93302,-1.12805 -0.93302,-1.23842 0,-0.11038 0.190616,-0.37319 0.423592,-0.58403 0.817721,-0.74002 1.481569,-2.515 1.47934,-3.95541 -0.0053,-3.40015 -3.103495,-6.24179 -6.327161,-5.80315 -3.083368,0.41954 -5.180011,2.78571 -5.177405,5.84296 0.0013,1.47653 0.633512,3.08071 1.535422,3.89573 0.616593,0.55718 0.568805,0.76698 -0.387374,1.70067 -2.673301,2.61041 -2.360153,7.08142 0.665303,9.49891 1.768079,1.41278 4.462208,1.75782 6.541992,0.83783 z m -4.362876,-2.08433 c -3.114129,-1.61963 -3.268533,-5.8148 -0.27592,-7.49674 1.05827,-0.59478 2.900452,-0.67133 3.874254,-0.16098 2.45815,1.28825 3.165077,4.46969 1.446906,6.51162 -1.157681,1.37583 -3.555995,1.92064 -5.04524,1.1461 z m 0.607103,-10.4808 c -0.887491,-0.25725 -2.135505,-1.67358 -2.314251,-2.62637 -0.575685,-3.06867 2.420099,-5.33466 5.186751,-3.92322 2.595872,1.32432 2.423287,5.14714 -0.287966,6.37853 -0.939042,0.42649 -1.561242,0.46767 -2.584534,0.17106 z m -24.505971,-19.13717 c 0.320148,-0.48861 0.320381,-0.56937 0.003,-1.05367 -0.342989,-0.52347 -0.351447,-0.52462 -4.293135,-0.58209 -2.3944,-0.0349 -3.97637,-0.14092 -4.0178,-0.26924 -0.0376,-0.11642 1.70652,-2.592921 3.87579,-5.503338 2.16927,-2.910417 4.089106,-5.625042 4.266305,-6.0325 0.177199,-0.407459 0.325253,-1.359959 0.329008,-2.116667 0.01162,-2.341366 -1.387064,-4.643213 -3.425543,-5.637469 -1.19242,-0.5816 -3.76952,-0.649011 -4.94434,-0.129332 -2.09555,0.92696 -3.52438,2.811252 -3.71354,4.897263 -0.10619,1.17112 -0.0791,1.269564 0.4434,1.611927 0.51743,0.339033 0.59365,0.34029 1.08567,0.01791 0.29104,-0.190699 0.52969,-0.511215 0.53034,-0.712261 0.003,-0.867539 0.50401,-2.042416 1.19988,-2.812669 1.26596,-1.401265 3.29638,-1.627222 4.92677,-0.54828 1.56763,1.037406 2.178896,3.477273 1.25423,5.006245 -0.24642,0.407458 -2.48443,3.466156 -4.97337,6.797106 -4.60905,6.168275 -5.00589,6.871965 -4.15494,7.367605 0.22471,0.13088 2.51255,0.21828 5.81596,0.22218 5.445542,0.006 5.445542,0.006 5.792267,-0.52272 z m 29.387082,-0.0151 c 0.293305,-0.29331 0.33262,-1.55497 0.33262,-10.674052 0,-9.119077 -0.03932,-10.380744 -0.33262,-10.674048 -0.375137,-0.375138 -0.890299,-0.422702 -1.360714,-0.125634 -0.267819,0.16913 -0.33406,1.269851 -0.423333,7.034676 -0.105833,6.834173 -0.105833,6.834173 -3.65125,6.892208 -2.684141,0.04394 -3.545417,-0.0048 -3.545417,-0.200702 0,-0.230874 3.255482,-9.306252 4.260558,-11.877253 0.482262,-1.233631 0.491238,-1.507214 0.06349,-1.934961 -0.483676,-0.483676 -1.298527,-0.413205 -1.660801,0.14363 -0.170414,0.261938 -1.507682,3.752884 -2.971704,7.757658 -2.521386,6.89715 -2.644663,7.307653 -2.335987,7.778751 0.179228,0.273539 0.347486,0.51646 0.373907,0.539826 0.02642,0.02337 2.143537,0.0948 4.704704,0.15875 4.656667,0.116266 4.656667,0.116266 4.7625,2.611711 0.08071,1.90304 0.181206,2.54294 0.423333,2.69551 0.470726,0.29661 0.985743,0.2489 1.360714,-0.12607 z m 24.674286,50.86527 c -1.281779,-0.69778 -1.706266,-1.10459 -2.212399,-2.12027 -0.623415,-1.25103 -0.696711,-2.54074 -0.210538,-3.7046 1.398824,-3.34868 5.876442,-3.77831 7.921034,-0.76002 0.779738,1.15107 0.85511,3.23006 0.16401,4.5239 -0.779285,1.45894 -1.977013,2.19415 -3.713313,2.27938 -0.919054,0.0451 -1.606215,-0.0319 -1.948794,-0.21839 z M 1.6034282,148.5753 c -1.7443281,-0.91676 -9.9215639,-5.26513 -15.1660652,-8.06479 -2.066396,-1.1031 -3.757083,-2.10451 -3.757083,-2.22536 0,-0.12085 0.5437,-1.25416 1.208221,-2.51846 0.819986,-1.56008 1.324822,-2.29872 1.571087,-2.29872 0.299066,0 12.8937303,6.58267 18.8048966,9.82848 1.993174,1.09444 2.6218303,1.93053 2.4929888,3.31558 -0.1060535,1.14009 -0.6355694,1.95344 -1.5666826,2.40644 -1.0535052,0.51254 -1.988748,0.39701 -3.5873626,-0.44317 z m -46.0164812,-6.13535 c -8.520765,-1.04023 -15.3327,-6.73338 -17.65814,-14.75799 -3.254523,-11.23068 3.216716,-22.64441 14.625259,-25.79549 2.477433,-0.68427 7.692754,-0.68011 10.229547,0.008 5.975319,1.62122 10.643919,5.43478 13.333864,10.89183 1.664809,3.37737 1.985562,4.85478 1.985562,9.14566 0,3.02312 -0.07219,3.85882 -0.451597,5.22785 -2.043235,7.37266 -7.835312,13.01237 -15.185329,14.78587 -1.664688,0.40168 -5.424309,0.67171 -6.879166,0.4941 z m 3.006229,-8.17511 c 4.789954,-2.19291 5.743059,-8.59153 1.806897,-12.13048 -1.511084,-1.35859 -2.984739,-1.84266 -5.342293,-1.75485 -1.905,0.071 -1.905,0.071 -1.905,-2.68071 0,-2.75167 0,-2.75167 4.466044,-2.8575 4.766555,-0.11295 5.164789,-0.20379 5.164789,-1.17808 0,-1.05065 -0.518126,-1.15025 -5.983385,-1.15025 -6.648147,0 -6.081615,-0.51724 -6.081615,5.55244 0,3.74237 0.05629,4.59372 0.329502,4.98379 0.413668,0.59059 1.120407,0.59978 2.090892,0.0272 0.418238,-0.24677 1.294962,-0.49255 1.977788,-0.55447 1.613399,-0.1463 3.130321,0.48252 4.260022,1.76593 2.026035,2.30169 1.537322,5.84941 -1.045132,7.58695 -1.282858,0.86314 -3.454872,1.01398 -4.9673,0.34496 -1.240309,-0.54865 -1.425452,-0.55161 -1.897219,-0.0303 -1.165271,1.28761 1.38909,2.83056 4.448859,2.68732 1.037154,-0.0486 1.85485,-0.23546 2.677151,-0.61192 z m 20.700437,0.873 c -1.105958,-0.59175 -2.102243,-1.16285 -2.213967,-1.26911 -0.263881,-0.25097 0.942805,-2.51568 1.34095,-2.51669 0.440199,-10e-4 4.506703,2.17343 4.620893,2.47101 0.152646,0.39778 -1.016878,2.39699 -1.400266,2.39364 -0.185227,-0.002 -1.241651,-0.4871 -2.34761,-1.07885 z"
         id="path1226" />
      <path
         style="fill:#242424;fill-opacity:1;stroke-width:0.211667"
         d="m -109.10912,170.92438 c -6.16529,-1.21998 -11.27767,-6.01326 -13.05241,-12.23772 -0.46129,-1.61788 -0.46129,-1.61788 -0.5237,-35.80205 -0.0416,-22.78006 0.0109,-34.740681 0.15742,-35.852344 0.7932,-6.019067 4.82329,-11.22106 10.41871,-13.448354 3.1029,-1.235127 1.33768,-1.181801 39.121047,-1.181801 39.307888,0 35.860107,-0.147333 39.6875,1.695952 4.167354,2.007012 7.015859,5.274508 8.632702,9.902501 0.680631,1.948214 0.680631,1.948214 0.742484,12.901965 0.03402,6.024561 0.0112,10.953751 -0.0507,10.953751 -0.0619,0 -0.84172,-0.76321 -1.732922,-1.69602 -2.819965,-2.95163 -5.650693,-4.76152 -9.390731,-6.00418 -2.256862,-0.749871 -4.688719,-1.189801 -6.576983,-1.189801 -0.869888,0 -1.043017,-0.06434 -1.043017,-0.387634 0,-0.213199 1.23825,-4.031971 2.751667,-8.486159 1.513416,-4.454189 2.751666,-8.185005 2.751666,-8.2907 0,-0.105696 -0.1905,-0.382675 -0.423333,-0.615508 -0.399815,-0.399815 -0.705555,-0.423334 -5.503333,-0.423334 -4.797779,0 -5.103519,0.02352 -5.503334,0.423334 -0.528921,0.528921 -0.533292,0.875525 -0.01905,1.511134 0.394555,0.487674 0.498964,0.501378 4.339167,0.569426 3.513142,0.06225 3.933599,0.107627 3.922886,0.423334 -0.0066,0.194483 -1.173414,3.734981 -2.592917,7.867773 -2.580919,7.514167 -2.580919,7.514167 -4.380086,7.966689 -3.48264,0.875946 -5.597827,1.823476 -8.253008,3.697066 -4.780599,3.37337 -8.240001,8.86453 -9.313229,14.78303 -0.338261,1.86538 -0.29794,6.14611 0.07604,8.07342 1.632083,8.41091 7.60338,15.15214 15.641504,17.6583 1.016779,0.31701 1.84869,0.61425 1.84869,0.66053 0,0.0463 -0.328149,0.58275 -0.729219,1.19214 -2.410007,3.66182 -0.8538,8.58263 3.193108,10.09677 0.632678,0.23671 1.586486,0.43039 2.119571,0.43039 0.82405,0 0.95453,0.0563 0.871006,0.37568 -0.05403,0.20661 -0.999265,1.80205 -2.100521,3.54541 -1.101253,1.74336 -2.07044,3.34985 -2.153748,3.56999 -0.395182,1.04423 1.270163,1.89305 2.017892,1.02851 0.417187,-0.48237 7.409688,-11.58048 7.890051,-12.52266 0.436562,-0.85627 0.644906,-2.77139 0.44588,-4.0986 -0.07832,-0.52227 -0.47164,-1.49635 -0.874044,-2.1646 -0.402403,-0.66826 -0.731642,-1.27965 -0.731642,-1.35864 0,-0.079 0.735082,-0.35988 1.633516,-0.6242 3.734926,-1.09884 6.836158,-2.97358 9.747311,-5.8924 1.078914,-1.08175 2.012398,-1.96682 2.07441,-1.96682 0.06201,0 0.08201,4.88156 0.04443,10.84791 -0.06739,10.70026 -0.07502,10.86809 -0.560957,12.32959 -1.939305,5.83266 -6.431477,10.08812 -12.178822,11.53707 -1.64099,0.4137 -2.369007,0.42163 -36.618333,0.3989 -19.219232,-0.0128 -35.339419,-0.10142 -35.822629,-0.19704 z m 7.65531,-6.53116 c 1.37068,-0.60418 2.91722,-2.13757 3.524972,-3.49499 0.729325,-1.62895 0.686877,-4.05156 -0.09922,-5.66277 -1.013246,-2.07678 -3.160562,-3.56598 -5.598742,-3.88283 -0.61119,-0.0794 -1.11125,-0.22585 -1.11125,-0.32539 0,-0.0995 0.9525,-1.69149 2.11666,-3.53766 2.28492,-3.62349 2.48692,-4.24427 1.57539,-4.84153 -0.51246,-0.33578 -0.5712,-0.33233 -1.10318,0.0648 -0.76993,0.57483 -8.19395,12.36063 -8.52027,13.5261 -0.36857,1.3164 -0.17374,3.78718 0.38449,4.8761 0.9043,1.764 2.33941,3.00587 4.17107,3.60942 1.18304,0.38983 3.37814,0.23377 4.66008,-0.3313 z m -4.86294,-2.40847 c -1.27025,-0.71946 -2.08047,-2.01304 -2.1835,-3.48612 -0.0721,-1.03071 0.008,-1.39622 0.52285,-2.37508 1.20654,-2.29558 4.16306,-3.04258 6.24654,-1.57825 1.59755,1.12279 2.251775,2.90545 1.760852,4.79801 -0.302692,1.16689 -1.318712,2.37532 -2.379992,2.83071 -1.07192,0.45995 -2.98138,0.36884 -3.96675,-0.18927 z m 35.05828,2.67123 c 0.365123,-0.33043 0.387083,-0.948 0.387083,-10.88572 0,-9.29542 -0.03915,-10.57456 -0.332619,-10.86803 -0.421386,-0.42138 -1.234997,-0.42809 -1.649489,-0.0136 -0.531044,0.53105 -5.133244,6.52552 -5.402129,7.03641 -0.295815,0.56205 -0.04163,1.18535 0.62995,1.54477 0.624639,0.3343 1.199553,-0.11294 2.730565,-2.12416 0.710095,-0.93281 1.38205,-1.69603 1.493235,-1.69603 0.124987,0 0.202154,3.16496 0.202154,8.29126 0,7.41806 0.03689,8.33201 0.350306,8.67833 0.435642,0.48138 1.083126,0.49635 1.590944,0.0368 z m -29.97365,-30.3961 c 3.933708,-2.00905 4.781744,-7.14917 1.715742,-10.39946 -0.427171,-0.45284 -0.776672,-0.89052 -0.776672,-0.97261 0,-0.0821 0.20079,-0.3307 0.446209,-0.55247 0.245415,-0.22178 0.691885,-0.87948 0.992156,-1.46156 0.73287,-1.4207 0.769158,-3.594 0.08207,-4.91537 -1.18282,-2.27474 -3.015175,-3.45611 -5.319085,-3.42936 -2.50201,0.029 -4.22181,1.06206 -5.27415,3.16799 -1.04689,2.09502 -0.83029,3.80091 0.48261,3.80091 0.64156,0 1.09762,-0.56436 1.24715,-1.54327 0.25937,-1.69803 1.82739,-3.1134 3.44918,-3.1134 0.83592,0 2.39192,0.81335 2.9056,1.51882 0.51783,0.71114 0.70654,2.49661 0.35387,3.34804 -0.37738,0.91108 -1.55137,1.86389 -2.48317,2.01534 -1.26218,0.20515 -1.72867,0.47021 -1.87855,1.06736 -0.19282,0.76826 0.44918,1.35984 1.7368,1.6004 1.39818,0.2612 2.48293,1.031 3.022,2.14457 1.157793,2.39169 -0.0713,5.21597 -2.56185,5.88659 -2.46483,0.66371 -4.77965,-0.93057 -5.18204,-3.56902 -0.21363,-1.40074 -1.2619,-1.9871 -2.08355,-1.16545 -0.48134,0.48134 -0.31171,2.40926 0.32112,3.64971 0.65358,1.28113 2.15712,2.66485 3.45337,3.17818 1.55348,0.61519 3.86167,0.50479 5.35119,-0.25594 z m 30.859708,0.34978 c 1.363125,-0.46447 3.127995,-2.11868 3.754086,-3.51871 0.385235,-0.86144 0.496636,-1.47707 0.489115,-2.703 -0.01132,-1.84676 -0.479876,-3.0249 -1.79898,-4.52348 -0.82688,-0.93938 -0.82688,-0.93938 -0.08601,-1.82615 2.385397,-2.85513 1.381743,-7.242 -2.064603,-9.02418 -1.055281,-0.5457 -3.341846,-0.636 -4.537947,-0.17921 -1.210666,0.46236 -2.701127,1.79745 -3.285598,2.94311 -0.537291,1.05318 -0.731095,3.17728 -0.385454,4.22458 0.141144,0.42767 0.581705,1.26065 0.979022,1.85106 0.397318,0.59041 0.722395,1.12072 0.722395,1.17847 0,0.0577 -0.377823,0.53423 -0.839607,1.05885 -3.123237,3.54818 -1.725695,8.97783 2.71969,10.56639 1.064539,0.38041 3.144583,0.3575 4.333892,-0.0477 z m -3.50647,-2.19759 c -1.688103,-0.50887 -2.785237,-2.10219 -2.798278,-4.06383 -0.0066,-1.00072 0.09903,-1.35789 0.626298,-2.11666 2.29714,-3.30571 7.507809,-1.86337 7.507809,2.07819 0,1.34311 -0.266402,2.10383 -1.018883,2.90945 -1.096717,1.17417 -2.809181,1.64735 -4.316946,1.19285 z m -0.347582,-10.94488 c -0.799482,-0.3939 -1.617631,-1.53067 -1.8247,-2.5353 -0.354959,-1.72215 1.114861,-3.71955 2.938299,-3.993 1.232804,-0.18487 2.753163,0.51292 3.476799,1.59572 0.417843,0.62524 0.48242,0.94669 0.413842,2.06008 -0.06846,1.11142 -0.179752,1.42284 -0.706461,1.97682 -0.343861,0.36166 -0.882408,0.79194 -1.196774,0.95617 -0.763238,0.39873 -2.226911,0.37018 -3.101005,-0.0605 z m -24.161589,-18.47924 c 0.232833,-0.23284 0.423333,-0.61384 0.423333,-0.84667 0,-0.23283 -0.1905,-0.61383 -0.423333,-0.84667 -0.391975,-0.39197 -0.705555,-0.42333 -4.233337,-0.42333 -2.38094,0 -3.81,-0.0788 -3.81,-0.21018 0,-0.1156 1.80742,-2.644709 4.01649,-5.620239 4.335806,-5.840161 4.568724,-6.288575 4.396076,-8.463308 -0.31114,-3.919176 -4.103846,-6.604961 -7.806936,-5.528442 -2.29678,0.667691 -3.94835,2.437141 -4.42705,4.743029 -0.28593,1.377322 -0.0603,2.088283 0.72534,2.285463 0.79421,0.199333 1.36689,-0.226676 1.51364,-1.12598 0.36573,-2.241125 1.50015,-3.448533 3.3871,-3.605014 0.62652,-0.05196 1.3799,-0.03403 1.67418,0.03983 1.6287,0.408777 2.982307,2.872717 2.48678,4.526632 -0.14396,0.48049 -2.09109,3.294981 -4.72835,6.834628 -5.29357,7.104841 -5.36743,7.218681 -5.05852,7.795891 0.12546,0.23442 0.39363,0.52266 0.59593,0.64052 0.22044,0.12843 2.4669,0.21688 5.60657,0.22073 4.961163,0.006 5.261186,-0.016 5.662087,-0.41689 z m 29.451135,-0.19297 c 0.499698,-0.40463 0.499698,-0.40463 0.499698,-10.813702 0,-10.40907 0,-10.40907 -0.499698,-10.813702 -0.619623,-0.501739 -0.709219,-0.501756 -1.328937,-2.54e-4 -0.499698,0.40439 -0.499698,0.40439 -0.605532,7.143756 -0.105833,6.739367 -0.105833,6.739367 -3.4925,6.739367 -2.882692,0 -3.382168,-0.04725 -3.35644,-0.3175 0.01662,-0.174625 1.040564,-3.071658 2.275416,-6.437852 1.234855,-3.366195 2.245191,-6.340562 2.245191,-6.609705 0,-0.290508 -0.218546,-0.632548 -0.537837,-0.841756 -0.838164,-0.549185 -1.443683,-0.146032 -2.003977,1.334239 -1.927991,5.093665 -5.078186,13.92024 -5.078186,14.228636 0,0.207622 0.172034,0.533184 0.3823,0.72347 0.324237,0.293432 1.071664,0.354671 4.92125,0.403223 4.53895,0.05725 4.53895,0.05725 4.644783,2.457962 0.09709,2.202388 0.147115,2.434078 0.605532,2.804588 0.619815,0.50094 0.709412,0.50089 1.328937,-8.5e-4 z m 25.092185,50.79006 c -3.401409,-1.09134 -4.063887,-5.93757 -1.071113,-7.83553 1.917367,-1.21596 3.939148,-1.02468 5.48253,0.5187 2.046214,2.04622 1.649299,5.3387 -0.828173,6.86986 -0.844785,0.52211 -2.648009,0.74704 -3.583244,0.44697 z M 2.7886133,149.02876 C 1.0542124,148.36303 -17.00712,138.55743 -17.070679,138.24704 c -0.07957,-0.38859 2.070426,-4.5695 2.4215,-4.70889 0.286764,-0.11385 19.6633763,10.15585 20.3754886,10.79912 0.7191714,0.64964 1.1356446,1.74385 0.9669611,2.54052 -0.2178537,1.02889 -1.0585048,1.99567 -1.950773,2.24348 -0.9610492,0.2669 -1.0254699,0.26385 -1.9538844,-0.0925 z m -48.1541663,-6.7928 c -0.232834,-0.055 -1.083729,-0.25115 -1.89088,-0.4358 -4.498683,-1.02919 -9.277295,-4.30789 -11.958619,-8.20506 -1.061169,-1.54236 -2.503769,-4.74495 -3.024316,-6.71403 -0.65811,-2.48944 -0.658269,-7.55582 -2.12e-4,-9.96026 1.69504,-6.19435 5.393631,-10.72737 11.019384,-13.50543 5.681207,-2.80545 12.385522,-2.73073 18.238193,0.20324 2.766339,1.38678 5.876182,4.10121 7.600497,6.6341 1.125325,1.65303 2.512394,4.7904 3.016861,6.82377 0.663728,2.67531 0.66515,7.03045 0.0032,9.69792 -1.773295,7.1455 -7.165848,12.73702 -14.325638,14.85419 -1.60957,0.47595 -2.397383,0.57449 -5.08,0.63537 -1.74625,0.0396 -3.3655,0.027 -3.598333,-0.028 z m 3.589686,-7.72462 c 1.639913,-0.61357 3.278537,-2.16714 4.049402,-3.8392 0.524459,-1.13759 0.614089,-1.59393 0.61493,-3.13086 8.46e-4,-1.50882 -0.09023,-1.99375 -0.564206,-3.00493 -0.721887,-1.54005 -2.196116,-3.01309 -3.732387,-3.72938 -1.047692,-0.48848 -1.483239,-0.56302 -3.322425,-0.56858 -2.116667,-0.006 -2.116667,-0.006 -2.116667,-2.64884 0,-2.64244 0,-2.64244 4.53895,-2.69968 3.849586,-0.0486 4.597013,-0.10979 4.92125,-0.40323 0.476981,-0.43166 0.490064,-1.08045 0.03199,-1.58661 -0.322053,-0.35587 -0.788865,-0.38708 -5.788027,-0.38708 -5.021428,0 -5.464844,0.03 -5.792007,0.39148 -0.313631,0.34655 -0.347758,0.95894 -0.297389,5.33661 0.0569,4.94513 0.0569,4.94513 0.620797,5.2615 0.525473,0.2948 0.645833,0.27491 1.766098,-0.29189 2.745782,-1.38924 6.035594,-0.19979 7.107946,2.56992 0.351475,0.9078 0.290638,2.81815 -0.121905,3.82792 -0.472019,1.15535 -1.950009,2.45739 -3.180537,2.80192 -1.109749,0.31071 -2.749531,0.1739 -3.679446,-0.30698 -1.277347,-0.66054 -2.234715,-0.27114 -2.100936,0.85453 0.201014,1.69139 4.274791,2.58968 7.044565,1.55338 z m 21.175314,0.56416 c -1.164167,-0.6258 -2.14673,-1.28732 -2.183471,-1.47005 -0.06286,-0.31259 0.939163,-2.25417 1.163345,-2.25417 0.368283,0 4.359845,2.2355 4.460659,2.49822 0.133439,0.34774 -0.760641,2.19783 -1.1122,2.30144 -0.116417,0.0343 -1.164167,-0.44964 -2.328333,-1.07544 z"
         id="path1224" />
      <path
         style="fill:#242424;fill-opacity:1;stroke-width:0.211667"
         d="m -108.86555,170.83745 c -6.09457,-1.12648 -11.15324,-5.684 -13.05073,-11.75783 -0.49594,-1.5875 -0.49594,-1.5875 -0.49594,-37.25334 0,-39.908585 -0.12606,-36.564386 1.50406,-39.899169 1.69162,-3.460601 4.23761,-5.982367 7.80927,-7.734995 3.671,-1.80137 0.90187,-1.684172 39.793337,-1.684172 37.891533,0 35.901867,-0.06602 39.194259,1.300484 2.543486,1.05567 5.256829,3.194471 6.943573,5.473294 0.992117,1.34037 2.120383,3.662676 2.679016,5.514209 0.460356,1.525806 0.478109,1.916111 0.555458,12.212431 0.04395,5.849938 0.01524,10.636248 -0.06381,10.636248 -0.07904,0 -0.755756,-0.66106 -1.503814,-1.46904 -3.994719,-4.31466 -9.263631,-6.79028 -15.578433,-7.319578 -0.90223,-0.07562 -1.640417,-0.169259 -1.640417,-0.208077 0,-0.03882 1.23825,-3.727833 2.751667,-8.19781 1.513416,-4.469979 2.751666,-8.32058 2.751666,-8.556891 0,-0.236312 -0.200573,-0.611108 -0.445719,-0.83288 -0.412013,-0.372729 -0.826533,-0.403223 -5.481235,-0.403223 -4.654806,0 -5.069192,0.03049 -5.480948,0.403223 -0.593441,0.537206 -0.581008,1.488644 0.025,1.913108 0.38412,0.269048 1.180232,0.329503 4.339167,0.329503 2.127805,0 3.868735,0.04923 3.868735,0.109406 0,0.06017 -0.913932,2.79861 -2.030958,6.085417 -1.117029,3.286804 -2.272405,6.690386 -2.567504,7.563511 -0.2951,0.873125 -0.614913,1.673483 -0.710701,1.778575 -0.09578,0.105093 -1.017657,0.404301 -2.048603,0.664907 -3.940139,0.995999 -7.349016,2.840589 -10.191879,5.514949 -2.262465,2.12836 -3.598668,3.93063 -5.006249,6.7524 -4.904048,9.83113 -2.062435,21.85528 6.730833,28.4812 1.905499,1.43584 5.325455,3.17608 7.305478,3.71738 0.727604,0.19892 1.322917,0.43851 1.322917,0.53244 0,0.0939 -0.283983,0.57837 -0.631074,1.07655 -2.333809,3.34969 -1.042268,8.071 2.737125,10.00574 0.401621,0.2056 1.375762,0.48259 2.16476,0.61553 1.434541,0.24171 1.434541,0.24171 -0.776961,3.72977 -1.216325,1.91844 -2.214281,3.70237 -2.217676,3.96431 -0.0075,0.57769 0.691246,1.32292 1.240377,1.32292 0.219935,0 0.588641,-0.16669 0.819347,-0.37042 0.534101,-0.47165 7.57773,-11.64211 8.134035,-12.89973 0.907135,-2.05073 0.659752,-4.46268 -0.659132,-6.42645 -0.347051,-0.51674 -0.564018,-0.99516 -0.482152,-1.06315 0.08187,-0.068 0.767976,-0.28942 1.524684,-0.49207 3.329068,-0.89155 7.038562,-3.14406 9.881426,-6.00027 0.955948,-0.96043 1.790697,-1.74625 1.854997,-1.74625 0.209491,0 0.114569,18.90175 -0.102575,20.42584 -0.79788,5.60014 -4.169019,10.25392 -9.199681,12.69993 -3.782357,1.83907 -0.04918,1.67522 -39.264167,1.72327 -27.725879,0.034 -35.121009,-0.0131 -36.300829,-0.2312 z m 37.938127,-6.48825 c 0.196763,-0.38161 0.262234,-3.03664 0.264583,-10.72962 0.0031,-10.22254 0.0031,-10.22254 -0.516426,-10.74209 -1.004564,-1.00456 -1.282459,-0.78792 -4.763971,3.71379 -1.61434,2.0874 -2.539285,3.46726 -2.542731,3.79333 -0.0065,0.61489 0.551322,1.28667 1.068409,1.28667 0.729805,0 1.060191,-0.27889 2.471752,-2.08646 1.428587,-1.82937 1.428587,-1.82937 1.53442,6.42563 0.05821,4.54025 0.187018,8.38074 0.286244,8.53442 0.502291,0.77794 1.753122,0.66658 2.19772,-0.19567 z m -30.271097,0.0587 c 1.769486,-0.91583 3.148562,-2.53182 3.673861,-4.30503 0.349142,-1.17856 0.258136,-3.18072 -0.199292,-4.38458 -0.911318,-2.39839 -3.245659,-4.18743 -5.761419,-4.41555 -0.68897,-0.0625 -1.25268,-0.15039 -1.25268,-0.19538 0,-0.045 1.00012,-1.66875 2.2225,-3.60838 1.22237,-1.93962 2.2225,-3.69933 2.2225,-3.91047 0,-0.54854 -0.75657,-1.23056 -1.36506,-1.23056 -0.33764,0 -0.69878,0.23987 -1.0357,0.68791 -1.36801,1.81924 -7.67465,12.03318 -8.00503,12.96459 -1.20797,3.40557 0.70295,7.34218 4.2172,8.68773 1.20213,0.46028 4.14541,0.29856 5.28312,-0.29028 z m -4.59787,-2.26735 c -0.90978,-0.40847 -1.83294,-1.26383 -2.27558,-2.10843 -0.71741,-1.3689 -0.23145,-3.98201 0.93014,-5.00156 1.78909,-1.57032 4.53515,-1.47397 6.05886,0.2126 2.522093,2.79165 0.85581,6.91196 -2.89516,7.15904 -0.66708,0.0439 -1.35958,-0.0557 -1.81826,-0.26165 z m 3.39523,-27.31892 c 4.736334,-1.40654 6.455579,-7.0817 3.231631,-10.66751 -0.690196,-0.76767 -0.929351,-1.17995 -0.791656,-1.36474 1.37269,-1.84215 1.784798,-2.89487 1.784798,-4.55921 0,-1.44824 -0.913782,-3.47338 -1.970203,-4.36639 -2.34283,-1.98044 -5.63628,-2.00484 -7.84785,-0.0581 -1.67813,1.47715 -2.66288,4.07347 -1.95487,5.15404 0.83937,1.28103 2.08429,0.75855 2.45573,-1.03065 0.407,-1.96053 1.47302,-2.87609 3.34871,-2.87609 1.89466,0 3.30814,1.38214 3.30662,3.23331 -0.001,1.86785 -1.06354,3.10856 -2.9473,3.44322 -1.06686,0.18954 -1.5875,0.6378 -1.5875,1.3668 0,0.76524 0.53935,1.18924 1.73074,1.36058 2.5682,0.36937 4.154136,2.95171 3.25642,5.30234 -0.44258,1.15889 -1.74941,2.36808 -2.76526,2.55866 -2.60543,0.48878 -4.63795,-0.96722 -5.04278,-3.61241 -0.23055,-1.5064 -1.44319,-2.04755 -2.26035,-1.0087 -0.37594,0.47793 -0.43128,0.74537 -0.31755,1.53458 0.39629,2.74982 2.49211,5.07795 5.13091,5.69965 1.22067,0.28758 1.99064,0.2616 3.23976,-0.10935 z m 32.415304,-0.24392 c 2.352279,-1.04052 3.982803,-3.48631 3.982803,-5.9742 0,-1.86479 -0.47123,-3.16263 -1.60698,-4.42585 -0.51316,-0.57076 -0.93302,-1.12621 -0.93302,-1.23433 0,-0.10813 0.237151,-0.41938 0.527003,-0.69168 0.745268,-0.70015 1.377997,-2.53581 1.377997,-3.99784 0,-3.34673 -3.302081,-6.30953 -6.540896,-5.86883 -3.139792,0.42722 -5.411131,2.98657 -5.373292,6.05463 0.01901,1.54112 0.350287,2.47091 1.310951,3.67938 0.653345,0.82187 0.653345,0.82187 -0.111017,1.66793 -2.501553,2.76892 -2.509012,6.65453 -0.0177,9.22176 1.996364,2.05719 4.890402,2.67214 7.384155,1.56903 z m -4.377559,-2.50156 c -0.907457,-0.47316 -1.365137,-0.93222 -1.822162,-1.82769 -0.469091,-0.9191 -0.520215,-2.435 -0.11484,-3.4052 0.525129,-1.25681 2.363542,-2.47462 3.735697,-2.47462 0.765025,0 1.972488,0.49316 2.637879,1.07738 2.020199,1.77376 1.706442,5.0781 -0.611147,6.4363 -1.065793,0.6246 -2.828032,0.71389 -3.825427,0.19383 z m 0.846195,-10.40182 c -0.731323,-0.17767 -1.832049,-1.14505 -2.139127,-1.87999 -0.426207,-1.02006 -0.357435,-2.18624 0.184692,-3.13186 1.571378,-2.74089 5.895224,-1.78055 6.224711,1.38254 0.239515,2.29935 -1.979983,4.18571 -4.270276,3.62931 z M -98.124585,102.7498 c 0.35419,-0.47456 0.376049,-0.62902 0.149771,-1.05834 -0.14572,-0.27648 -0.36975,-0.57266 -0.497842,-0.65819 -0.128095,-0.0855 -1.917964,-0.15697 -3.977484,-0.15875 -2.05953,-0.002 -3.78833,-0.0747 -3.84178,-0.16199 -0.0535,-0.0873 1.69846,-2.572291 3.89314,-5.522173 2.19468,-2.949884 4.110235,-5.712135 4.256787,-6.138334 0.146552,-0.426201 0.26328,-1.369614 0.259395,-2.096474 -0.01359,-2.542692 -1.975918,-5.254988 -4.307332,-5.953497 -1.37448,-0.411804 -3.37095,-0.296126 -4.55896,0.264151 -1.92417,0.90746 -3.36826,2.76456 -3.629,4.666888 -0.17565,1.281536 0.0214,1.906127 0.69875,2.214743 0.82963,0.378007 1.6033,-0.240735 1.80921,-1.446909 0.52252,-3.060787 3.82271,-4.425278 6.02543,-2.491264 1.4878,1.306307 1.77526,3.208475 0.72837,4.81976 -0.33627,0.517564 -2.5712,3.560399 -4.96652,6.761858 -2.80189,3.744866 -4.35785,6.003611 -4.36276,6.333331 -0.004,0.28188 0.15138,0.68822 0.34573,0.90297 0.32908,0.36364 0.73854,0.38661 5.95687,0.33417 5.603506,-0.0563 5.603506,-0.0563 6.018225,-0.61195 z m 29.369865,0.0265 c 0.411762,-0.41176 0.423333,-0.70556 0.423333,-10.747904 0,-11.355561 0.01,-11.265432 -1.249197,-11.265432 -1.25842,0 -1.279169,0.114871 -1.340648,7.421608 -0.05599,6.654226 -0.05599,6.654226 -3.389738,6.712517 -1.833562,0.03206 -3.334074,-0.01556 -3.33447,-0.105833 -4.23e-4,-0.09027 1.060768,-3.064845 2.358143,-6.610168 2.20836,-6.034769 2.339615,-6.480334 2.057194,-6.983502 -0.521184,-0.928555 -1.830474,-0.846835 -2.281294,0.142387 -0.147172,0.322937 -1.446746,3.802568 -2.88794,7.732513 -2.823528,7.69939 -2.874776,7.957721 -1.669565,8.415941 0.300706,0.11433 2.493164,0.207872 4.872128,0.207872 4.325387,0 4.325387,0 4.325387,2.364581 0,1.90323 0.06835,2.44011 0.350307,2.75167 0.459735,0.508 1.23808,0.49203 1.76636,-0.0362 z m 24.4475,50.46714 c -2.583081,-1.34344 -3.240341,-4.76218 -1.312814,-6.8286 1.402093,-1.50312 4.070047,-1.76267 5.577497,-0.54259 0.433358,0.35075 0.974078,0.88705 1.201594,1.19179 0.463044,0.62019 0.692004,2.28293 0.474216,3.44383 -0.171927,0.91645 -1.429349,2.38184 -2.388278,2.78329 -0.916186,0.38355 -2.770896,0.35863 -3.552215,-0.0477 z m 46.1433333,-4.7665 c -1.35658857,-0.70298 -9.3528345,-4.95229 -15.1853243,-8.06967 -1.949012,-1.04172 -3.59845,-1.98269 -3.665419,-2.09105 -0.152675,-0.24703 2.03516,-4.43536 2.390299,-4.57591 0.298907,-0.1183 1.413459,0.44704 12.3329443,6.25568 8.8976348,4.73312 9.0049414,4.81413 8.8322108,6.66789 -0.2119588,2.27479 -2.2775651,3.07081 -4.7047108,1.81306 z M -45.087432,142.1446 c -8.960637,-1.42486 -15.513606,-7.70404 -17.338596,-16.61415 -0.370189,-1.80737 -0.308924,-5.80602 0.119991,-7.83167 1.309893,-6.18627 5.26727,-11.26373 10.969822,-14.0747 3.298789,-1.62607 4.872615,-1.97776 8.933995,-1.99641 2.915928,-0.0134 3.636747,0.0527 5.185833,0.4756 7.210815,1.96851 12.66244,7.37933 14.646811,14.53718 0.398568,1.43768 0.470251,2.23659 0.474796,5.29166 0.0046,3.11868 -0.05894,3.82406 -0.476921,5.29167 -2.06432,7.24814 -7.722227,12.73679 -14.962186,14.5146 -1.949524,0.47872 -5.796561,0.68561 -7.553545,0.40622 z m 3.713923,-7.68336 c 1.543892,-0.70682 2.690027,-1.7925 3.503462,-3.31866 1.683912,-3.15934 1.085498,-6.64189 -1.556142,-9.0562 -1.674776,-1.53065 -3.07238,-2.01891 -5.463114,-1.90855 -1.852084,0.0855 -1.852084,0.0855 -1.852084,-2.51969 0,-2.60519 0,-2.60519 4.28625,-2.60831 5.015635,-0.004 5.344584,-0.0881 5.344584,-1.37272 0,-1.33976 -0.235704,-1.38943 -6.289902,-1.32536 -4.695454,0.0497 -5.270265,0.0941 -5.609166,0.43334 -0.34096,0.3413 -0.377599,0.86155 -0.377599,5.36165 0,4.68899 0.0243,5.00143 0.410873,5.2841 0.573917,0.41966 1.238025,0.37482 2.115354,-0.14281 0.418238,-0.24677 1.294962,-0.49256 1.977788,-0.55447 2.856691,-0.25904 5.338485,1.98808 5.338485,4.83367 0,3.65287 -3.675465,5.91365 -7.170071,4.41031 -1.274176,-0.54814 -2.038796,-0.37535 -2.261254,0.51099 -0.250101,0.99648 0.514956,1.71305 2.552158,2.39041 1.258134,0.41833 3.657746,0.21986 5.050378,-0.4177 z m 20.730732,0.48501 c -1.070974,-0.58344 -2.004458,-1.1534 -2.074411,-1.26658 -0.156932,-0.25393 0.909313,-2.11672 1.21159,-2.11672 0.323607,0 3.956057,1.94558 4.215018,2.25761 0.272627,0.32849 -0.606558,2.04739 -1.090305,2.13166 -0.173068,0.0301 -1.19092,-0.42254 -2.261892,-1.00597 z"
         id="path1222" />
      <path
         style="fill:#242424;fill-opacity:1;stroke-width:0.211667"
         d="m -108.23055,170.78382 c -6.52009,-0.92347 -12.04137,-5.95008 -13.70428,-12.47646 -0.47739,-1.87358 -0.47739,-1.87358 -0.47739,-36.58691 0,-32.481108 0.024,-34.806933 0.37357,-36.168826 1.48952,-5.80337 5.35559,-10.079818 10.90955,-12.067571 1.84021,-0.658609 1.84021,-0.658609 37.286663,-0.715161 34.979193,-0.05581 35.468776,-0.05091 37.139962,0.371701 5.662881,1.432023 9.82614,5.314612 11.804855,11.009018 0.698733,2.010834 0.698733,2.010834 0.764212,12.541251 0.03601,5.791728 0.02011,10.530418 -0.03533,10.530418 -0.05544,0 -0.70403,-0.62843 -1.441312,-1.39652 -2.645336,-2.75588 -5.709344,-4.69251 -9.34107,-5.90411 -2.396122,-0.799383 -4.30076,-1.162029 -6.115696,-1.16444 -0.662525,-8.47e-4 -1.253949,-0.08146 -1.314276,-0.179072 -0.06033,-0.09761 1.124676,-3.820952 2.633341,-8.274093 1.508664,-4.453143 2.743026,-8.261926 2.743026,-8.463964 0,-0.202039 -0.220451,-0.574447 -0.489892,-0.827573 -0.47567,-0.44687 -0.641579,-0.46023 -5.715,-0.46023 -4.942886,0 -5.247974,0.02287 -5.648441,0.423333 -0.609075,0.609075 -0.547971,1.564568 0.134378,2.101304 0.516952,0.406635 0.834075,0.438696 4.339167,0.438696 2.079801,0 3.781455,0.03551 3.781455,0.0789 0,0.156809 -5.072954,14.978453 -5.193238,15.173076 -0.06788,0.109828 -0.248367,0.199687 -0.401089,0.199687 -0.615197,0 -4.673909,1.280746 -5.947711,1.876826 -4.472434,2.09291 -8.666181,6.17649 -10.897762,10.6115 -4.527065,8.99702 -2.749605,19.80798 4.420396,26.88596 2.705483,2.67076 5.332758,4.30072 8.863982,5.4992 1.019107,0.34588 1.827738,0.72958 1.796957,0.85267 -0.03078,0.12309 -0.285147,0.57687 -0.56526,1.0084 -0.75662,1.16563 -1.025129,2.3418 -0.93342,4.08874 0.178634,3.40276 2.416769,5.87896 5.913069,6.54202 0.611941,0.11605 1.154961,0.25334 1.206707,0.30509 0.05175,0.0518 -0.825993,1.53527 -1.950538,3.29672 -1.124545,1.76144 -2.096162,3.4603 -2.15915,3.77524 -0.256792,1.28396 1.533205,2.14583 2.438597,1.17416 0.580371,-0.62286 7.644767,-11.89736 8.138617,-12.98891 0.617436,-1.36472 0.588838,-3.74353 -0.06303,-5.24304 -0.264105,-0.60752 -0.612625,-1.2145 -0.774491,-1.34883 -0.596279,-0.49487 -0.247322,-0.77415 1.80869,-1.44753 3.49522,-1.14475 7.256249,-3.5698 9.665608,-6.23223 1.168785,-1.29155 1.168785,-1.29155 1.091973,9.18332 -0.08558,11.67142 -0.06247,11.4612 -1.617467,14.70819 -2.030085,4.23901 -5.492541,7.2053 -10.290605,8.81596 -1.481667,0.49738 -1.481667,0.49738 -36.5125,0.5207 -19.266958,0.0128 -35.316577,-0.0171 -35.665827,-0.0666 z m 6.60508,-6.02363 c 1.688631,-0.6318 3.421831,-2.37533 4.070374,-4.09463 0.908331,-2.40802 0.376028,-5.21294 -1.378215,-7.26238 -0.874344,-1.02147 -2.917279,-2.09456 -4.349239,-2.28452 -0.56769,-0.0753 -1.03217,-0.2125 -1.03217,-0.30487 0,-0.0924 0.92075,-1.61194 2.04611,-3.37681 2.22002,-3.48158 2.445133,-4.18689 1.56405,-4.90035 -0.63809,-0.51669 -1.14369,-0.49246 -1.79236,0.0859 -0.29377,0.26194 -2.28752,3.25687 -4.43055,6.65541 -3.45575,5.48032 -3.92528,6.33212 -4.15162,7.53164 -0.53357,2.82787 0.58336,5.57989 2.91605,7.18482 1.88272,1.29534 4.34982,1.58433 6.53757,0.76579 z m -4.40988,-2.91834 c -1.53413,-0.8343 -2.48214,-2.62254 -2.22625,-4.1994 0.33668,-2.07473 2.0289,-3.50731 4.16026,-3.52194 1.37606,-0.009 2.29063,0.44979 3.24341,1.6286 1.364801,1.68861 0.881293,4.59988 -0.96711,5.82309 -1.13762,0.75285 -3.09168,0.878 -4.21031,0.26965 z m 35.027284,2.98685 c 0.320404,-0.35404 0.3473,-1.36177 0.297387,-11.14261 -0.05487,-10.75337 -0.05487,-10.75337 -0.646658,-11.19516 -0.545685,-0.40738 -0.636372,-0.41694 -1.164167,-0.12283 -0.679585,0.37869 -5.925119,7.0403 -6.103561,7.75126 -0.165051,0.65762 0.0023,1.03272 0.649927,1.45709 0.882307,0.57811 1.476982,0.25166 2.926565,-1.60655 1.319686,-1.69169 1.319686,-1.69169 1.464142,-0.68307 0.07945,0.55474 0.141843,4.182 0.138646,8.06057 -0.0053,6.42398 0.02717,7.0884 0.3646,7.46125 0.475912,0.52588 1.605467,0.5368 2.073119,0.02 z m -30.423754,-30.19582 c 1.488997,-0.66131 2.708512,-1.82348 3.40788,-3.24762 0.506656,-1.03172 0.587195,-1.44806 0.579804,-2.99731 -0.0073,-1.52451 -0.0937,-1.96073 -0.566154,-2.8575 -0.306664,-0.58209 -0.850489,-1.37378 -1.2085,-1.75932 -0.744849,-0.80212 -0.778063,-0.94084 -0.316918,-1.32355 0.183706,-0.15247 0.586677,-0.75944 0.895492,-1.34884 0.471265,-0.89945 0.561547,-1.3437 0.561907,-2.76496 4.24e-4,-1.86105 -0.358377,-2.80993 -1.595522,-4.21896 -1.640739,-1.8687 -4.855479,-2.47547 -7.075059,-1.33539 -2.03085,1.04314 -3.45448,3.09451 -3.54192,5.10372 -0.0516,1.18554 0.44854,1.82646 1.42526,1.82646 0.85224,0 1.3163,-0.50567 1.49614,-1.63032 0.29723,-1.85879 1.4765,-2.88621 3.32011,-2.8926 1.75953,-0.006 3.01541,1.30463 3.01541,3.14709 0,1.7533 -1.04516,2.90753 -2.95185,3.25987 -1.14931,0.21239 -1.59898,0.64202 -1.59898,1.52772 0,0.68419 0.86055,1.45658 1.62284,1.45658 0.63221,0 1.93239,0.53265 2.47389,1.01349 0.59345,0.52696 1.18493,1.93606 1.19029,2.83564 0.006,1.02106 -0.31374,1.83232 -1.01424,2.57268 -0.85549,0.90418 -1.58192,1.19819 -2.96051,1.19819 -1.04041,0 -1.38934,-0.10184 -2.09139,-0.6104 -0.9208,-0.66703 -1.49033,-1.66704 -1.72187,-3.02333 -0.20702,-1.21271 -1.01839,-1.82968 -1.91679,-1.45755 -1.28958,0.53417 -1.27655,2.67452 0.0295,4.84356 1.78899,2.97112 5.36371,4.09388 8.54119,2.68265 z m 31.242051,0.19404 c 1.277732,-0.42263 2.863958,-1.84899 3.665495,-3.29607 0.5653,-1.02058 0.626861,-1.31968 0.625105,-3.03707 -0.0017,-1.65103 -0.07703,-2.04774 -0.565085,-2.97567 -0.309723,-0.58886 -0.856534,-1.38475 -1.215134,-1.76863 -0.358599,-0.38388 -0.651999,-0.76654 -0.651999,-0.85035 0,-0.0838 0.237152,-0.37518 0.527004,-0.64748 0.868369,-0.81579 1.435845,-2.62991 1.324866,-4.23537 -0.230528,-3.33491 -2.788215,-5.77726 -6.050079,-5.77726 -4.656174,0 -7.607029,4.74581 -5.532359,8.89759 0.352605,0.70563 0.779975,1.39822 0.949712,1.53908 0.262668,0.218 0.184032,0.39766 -0.528206,1.20681 -2.308142,2.62219 -2.269593,6.75912 0.08589,9.21744 1.981503,2.06801 4.528293,2.66521 7.364794,1.72698 z m -3.377483,-2.62331 c -0.947661,-0.22505 -2.045868,-1.11052 -2.46018,-1.98362 -0.519161,-1.09405 -0.455443,-2.87895 0.134,-3.75362 1.728804,-2.56538 5.314713,-2.44595 6.662462,0.22189 1.173641,2.32319 -0.01983,4.9223 -2.525615,5.50022 -0.502683,0.11593 -0.961593,0.20336 -1.019802,0.19429 -0.05821,-0.009 -0.414096,-0.0897 -0.790865,-0.17916 z m -0.474916,-10.95974 c -0.405137,-0.20355 -0.952824,-0.69374 -1.217083,-1.08931 -0.876694,-1.31233 -0.494043,-3.56963 0.742454,-4.37982 2.352893,-1.54167 5.340712,0.15539 5.078476,2.88455 -0.223858,2.32973 -2.531999,3.62551 -4.603847,2.58458 z m -24.134219,-18.04426 c 0.235185,-0.23518 0.423334,-0.70555 0.423334,-1.05833 0,-0.35278 -0.188149,-0.82315 -0.423334,-1.05833 -0.391274,-0.39128 -0.705555,-0.42334 -4.150143,-0.42334 -3.03715,0 -3.70657,-0.0528 -3.61743,-0.28504 0.0602,-0.15677 1.79244,-2.544567 3.84952,-5.306205 2.05707,-2.761641 3.875417,-5.344937 4.040761,-5.740661 0.167477,-0.400822 0.300626,-1.410652 0.300626,-2.279986 0,-2.679743 -1.398133,-4.827127 -3.901987,-5.993047 -3.79165,-1.765578 -8.50492,1.017161 -8.94501,5.281176 -0.10125,0.980975 -0.0533,1.211823 0.33182,1.596923 0.91586,0.915863 2.56049,0.264478 2.57149,-1.018487 0.008,-0.883224 0.74103,-2.240545 1.50527,-2.785612 0.56751,-0.40476 0.97875,-0.508226 2.01998,-0.508226 1.39964,0 2.07139,0.330295 2.88322,1.417648 0.44342,0.593919 0.70153,2.164474 0.49255,2.997109 -0.0723,0.288264 -2.21766,3.330327 -4.76735,6.760138 -2.5497,3.429811 -4.74063,6.43186 -4.86873,6.67123 -0.35431,0.66203 -0.28343,1.06677 0.28663,1.63683 0.51954,0.51955 0.51954,0.51955 6.0325,0.51955 5.230728,0 5.534623,-0.0217 5.936283,-0.42334 z m 29.537121,-0.30788 c 0.519546,-0.51954 0.519546,-0.51954 0.519546,-10.910452 0,-10.390909 0,-10.390909 -0.519546,-10.910455 -0.65926,-0.659259 -1.264982,-0.659259 -1.924241,0 -0.519546,0.519546 -0.519546,0.519546 -0.519546,7.090835 0,6.571287 0,6.571287 -3.175,6.571287 -1.74625,0 -3.175,-0.035 -3.175,-0.07779 0,-0.04278 1.04554,-2.945878 2.323422,-6.451319 1.39344,-3.822432 2.270151,-6.523602 2.190327,-6.748462 -0.390946,-1.101297 -1.607221,-1.482295 -2.352571,-0.736943 -0.465021,0.46502 -5.55629,14.213101 -5.699644,15.390886 -0.183854,1.510549 0.0051,1.569477 5.243682,1.635547 4.53895,0.05724 4.53895,0.05724 4.644784,2.457966 0.09709,2.20238 0.147114,2.43408 0.605531,2.80458 0.671371,0.54262 1.214118,0.50846 1.838256,-0.11568 z m 25.128681,50.48309 c -3.214709,-0.78477 -4.091654,-5.29816 -1.424665,-7.33237 1.417669,-1.08131 3.718465,-0.96961 5.142931,0.24968 1.243124,1.06407 1.686492,2.57318 1.223691,4.16515 -0.317569,1.09241 -1.187086,2.16726 -2.140259,2.64569 -0.644863,0.32368 -2.036332,0.45869 -2.801698,0.27185 z m 42.1716983,-6.74729 c -2.3283333,-1.25308 -6.7098333,-3.59291 -9.7366663,-5.19962 -3.026834,-1.60672 -5.585418,-2.99885 -5.685742,-3.09362 -0.243092,-0.22965 1.971373,-4.44301 2.335164,-4.44301 0.156316,0 4.7365181,2.37136 10.1782268,5.26968 10.6983763,5.69808 10.6316229,5.65164 10.6337375,7.39857 8.467e-4,0.76568 -0.1200891,1.04195 -0.7185533,1.64042 -0.6237965,0.62379 -0.8564245,0.71875 -1.74625,0.71278 -0.8955638,-0.006 -1.5668731,-0.29766 -5.2599167,-2.2852 z m -43.4975003,-4.60889 c -5.149126,-0.94089 -8.278975,-2.4717 -11.608837,-5.67792 -2.702589,-2.60223 -4.636366,-5.99651 -5.575573,-9.78656 -0.66639,-2.68914 -0.659632,-6.84048 0.01545,-9.49038 1.455752,-5.71426 5.576049,-10.8356 10.713127,-13.31592 4.713889,-2.27598 9.69488,-2.70604 14.663879,-1.26608 11.738172,3.40159 17.854829,16.71948 12.743149,27.74587 -1.076148,2.32135 -2.135368,3.88107 -3.897546,5.73918 -2.542296,2.68069 -6.244721,4.80118 -9.858959,5.64652 -1.519758,0.35546 -6.065888,0.61155 -7.19469,0.40529 z m 3.247541,-7.28642 c 1.637409,-0.61263 3.144452,-2.03155 3.995572,-3.76194 0.637176,-1.29543 0.694387,-1.57768 0.694387,-3.42579 0,-1.72332 -0.07887,-2.18216 -0.546375,-3.17871 -0.69719,-1.48614 -2.191935,-2.98089 -3.742112,-3.74211 -1.080207,-0.53044 -1.443569,-0.59656 -3.278596,-0.59656 -2.06375,0 -2.06375,0 -2.06375,-2.48708 0,-2.48708 0,-2.48708 4.48125,-2.48708 3.872812,0 4.533805,-0.0476 4.868333,-0.35031 0.532859,-0.48223 0.501655,-1.59716 -0.05888,-2.10397 -0.414274,-0.37457 -0.833899,-0.40322 -5.904601,-0.40322 -5.0709,0 -5.490271,0.0286 -5.904033,0.40322 -0.429461,0.38879 -0.445399,0.58718 -0.445399,5.54425 0,5.07264 0.0063,5.14541 0.470431,5.47053 0.653296,0.45758 1.111642,0.41507 2.41856,-0.22435 0.952056,-0.4658 1.346876,-0.54016 2.483507,-0.46779 2.424317,0.15437 4.086678,1.758 4.303727,4.15167 0.146073,1.61091 -0.19163,2.62029 -1.266942,3.78687 -1.459147,1.58299 -3.500907,1.89379 -5.789752,0.88132 -0.803105,-0.35525 -1.008151,-0.37371 -1.505142,-0.13551 -1.271685,0.6095 -1.054687,2.07352 0.422188,2.84834 1.863331,0.97756 4.222917,1.08066 6.36763,0.27822 z m 21.119659,0.12033 c -0.975497,-0.51225 -1.865323,-1.02306 -1.977392,-1.13513 -0.210847,-0.21085 0.635019,-1.93802 0.950671,-1.94118 0.283708,-0.003 3.926201,1.8818 4.062148,2.10176 0.17754,0.28727 -0.677538,1.91979 -1.001511,1.9121 -0.143157,-0.003 -1.058416,-0.4253 -2.033916,-0.93755 z"
         id="path1220" />
    </g>
  </g>
</svg>
